<?xml version="1.0" standalone="yes"?>
<svg xmlns="http://www.w3.org/2000/svg" width="567" height="567">
<path style="fill:#fefefe; stroke:none;" d="M0 0L0 567L567 567L567 0L0 0z"/>
<path style="fill:#afb5bd; stroke:none;" d="M286 67L286 68C290.933 74.512 288 89.9803 288 98L288 177L289 177L289 67L286 67z"/>
<path style="fill:#f17822; stroke:none;" d="M286 68C272.196 97.1806 250.797 124.847 233.308 152C226.542 162.505 216.78 174.06 213 186L266 138L277.272 209L286 268L287 268C292.497 249.402 288 223.429 288 204L288 68L286 68z"/>
<path style="fill:#afb5bd; stroke:none;" d="M285 69L286 70L285 69M284 71L285 72L284 71M283 72L284 73L283 72M282 74L283 75L282 74M281 75L282 76L281 75M280 77L281 78L280 77M279 78L280 79L279 78M278 80L279 81L278 80M277 82L278 83L277 82M276 83L277 84L276 83M275 85L276 86L275 85M274.333 86.6667L274.667 87.3333L274.333 86.6667M273 88L274 89L273 88M272.333 89.6667L272.667 90.3333L272.333 89.6667M271 91L272 92L271 91M270 93L271 94L270 93M269.333 94.6667L269.667 95.3333L269.333 94.6667M268 96L269 97L268 96M202 98L202 99L207 98L202 98M267 97L268 98L267 97z"/>
<path style="fill:#2e90cf; stroke:none;" d="M198 107C207.924 110.138 221.041 113.892 224 101C212.614 99.5296 203.876 94.4414 198 107z"/>
<path style="fill:#afb5bd; stroke:none;" d="M209 98L209 99L214 99L209 98M215 99L215 100L219 100L215 99M266 99L267 100L266 99M201 100L202 101L201 100M220 100L220 101L224 104L225 104L226 101L220 100M200.333 101.667L200.667 102.333L200.333 101.667M265 101L266 102L265 101M227 113L227 112C225.814 106.996 230.506 103.7 235 103C229.413 100.722 221.586 109.133 227 113M264 102L265 103L264 102M199 103L200 104L199 103z"/>
<path style="fill:#2e90cf; stroke:none;" d="M225 112L246 116L251 106C240.424 103.949 229.649 99.335 225 112z"/>
<path style="fill:#afb5bd; stroke:none;" d="M237 103L237 104L241 104L237 103M198.333 104.667L198.667 105.333L198.333 104.667M223 104L224 105L223 104M243 104L243 105L247 105L243 104M263 104L264 105L263 104M222.333 105.667L222.667 106.333L222.333 105.667M248 105L248 106L251 106L248 105M262 105L263 106L262 105M197 106L197 108L199 108L197 106z"/>
<path style="fill:#155ea0; stroke:none;" d="M200.667 106.333L201.333 106.667L200.667 106.333z"/>
<path style="fill:#afb5bd; stroke:none;" d="M251.333 106.667L251.667 107.333L251.333 106.667z"/>
<path style="fill:#155ea0; stroke:none;" d="M207 107L208 108L207 107z"/>
<path style="fill:#afb5bd; stroke:none;" d="M221.333 107.667L221.667 108.333L221.333 107.667M261 107L262 108L261 107M201 108L201 109L205 109L201 108M250.333 108.667L250.667 109.333L250.333 108.667M260.333 108.667L260.667 109.333L260.333 108.667M207 109L207 110L212 110L207 109M220 109L221 110L220 109M213 110L213 111L217 111L213 110M219 110L220 111L219 110M249 110L250 111L249 110M259 110L260 111L259 110M248 112L249 113L248 112M258 112L259 113L258 112M229 113L229 114L233 114L229 113M247.333 113.667L247.667 114.333L247.333 113.667M257 113L258 114L257 113M235 114L235 115L239 115L235 114M240 115L240 116L244 116L240 115M246 115L247 116L246 115M256 115L257 116L256 115M301 115L295 125L300 126L300 125L297 125L301 115z"/>
<path style="fill:#2e90cf; stroke:none;" d="M302 115L297 125C307.614 127 318.222 131.593 323 119L302 115z"/>
<path style="fill:#afb5bd; stroke:none;" d="M304 115L304 116L308 116L304 115M255 116L256 117L255 116z"/>
<path style="fill:#155ea0; stroke:none;" d="M303 116L304 117L303 116z"/>
<path style="fill:#afb5bd; stroke:none;" d="M310 116L310 117L314 117L310 116M315 117L315 118L319 118L315 117M254 118L255 119L254 118M321 118L321 119L323 121L324 121L321 118M253.333 119.667L253.667 120.333L253.333 119.667M329 119L322 130L328 131L328 130L323 129L329 119z"/>
<path style="fill:#2e90cf; stroke:none;" d="M323 129C333.783 133.04 344.485 135.786 350 124C338.849 121.253 329.391 117.543 323 129z"/>
<path style="fill:#afb5bd; stroke:none;" d="M331 120L331 121L335 121L331 120M252 121L253 122L252 121M322 121L323 122L322 121z"/>
<path style="fill:#155ea0; stroke:none;" d="M329 121L330 122L329 121z"/>
<path style="fill:#afb5bd; stroke:none;" d="M337 121L337 122L341 122L337 121M321.333 122.667L321.667 123.333L321.333 122.667M342 122L342 123L347 123L342 122M251 123L252 124L251 123M348.667 123.333L349.333 123.667L348.667 123.333M250.333 124.667L250.667 125.333L250.333 124.667M320 124L321 125L320 124M350 124L351 125L350 124M319.333 125.667L319.667 126.333L319.333 125.667M349.333 125.667L349.667 126.333L349.333 125.667M249 126L250 127L249 126M302 126L302 127L306 127L302 126M248.333 127.667L248.667 128.333L248.333 127.667M307 127L307 128L311 128L307 127M318 127L319 128L318 127M348 127L349 128L348 127M313 128L313 129L318 129L313 128M347.333 128.667L347.667 129.333L347.333 128.667M247 129L248 130L247 129M346 130L347 131L346 130M329 131L329 132L334 132L329 131z"/>
<path style="fill:#155ea0; stroke:none;" d="M343 131L344 132L343 131z"/>
<path style="fill:#afb5bd; stroke:none;" d="M245 132L246 133L245 132M335 132L335 133L339 133L335 132M345 132L346 133L345 132M341 133L341 134L345 134L341 133M244 134L245 135L244 134M243 135L244 136L243 135M242 137L243 138L242 137M241.333 138.667L241.667 139.333L241.333 138.667M264 138L265 139L264 138M263 139L264 140L263 139M266 139L266 142L267 142L266 139M240 140L241 141L240 140M262 140L263 141L262 140M261 141L262 142L261 141M239 142L240 143L239 142M260 142L261 143L260 142M238 143L239 144L238 143M259 143L260 144L259 143M237 145L238 146L237 145M267 145L267 149L268 149L267 145M236 146L237 147L236 146M255 146L256 147L255 146M235 148L236 149L235 148M253 148L254 149L253 148M252 149L253 150L252 149M234 150L235 151L234 150M251 150L252 151L251 150M233 151L234 152L233 151M250 151L251 152L250 151M249 152L250 153L249 152M268 152L268 155L269 155L268 152M232 153L233 154L232 153M248 153L249 154L248 153M231 154L232 155L231 154M247 154L248 155L247 154M246 155L247 156L246 155M230 156L231 157L230 156M245 156L246 157L245 156M229 157L230 158L229 157M269 157L269 162L270 162L269 157M228 159L229 160L228 159M242 159L243 160L242 159M227 160L228 161L227 160M240 160L241 161L240 160M239 161L240 162L239 161M226 162L227 163L226 162M238 162L239 163L238 162M237 163L238 164L237 163M270 163L270 168L271 168L270 163M225 164L226 165L225 164M236 164L237 165L236 164M224.333 165.667L224.667 166.333L224.333 165.667M235 165L236 166L235 165M234 166L235 167L234 166M223 167L224 168L223 167M233 167L234 168L233 167M222.333 168.667L222.667 169.333L222.333 168.667M232 168L233 169L232 168M231 169L232 170L231 169M221 170L222 171L221 170M230 170L231 171L230 170M229 171L230 172L229 171M271 171L271 175L272 175L271 171M220 172L221 173L220 172M219 173L220 174L219 173M226 173L227 174L226 173M218 175L219 176L218 175M224 175L225 176L224 175M217 176L218 177L217 176M223 176L224 177L223 176M222 177L223 178L222 177M272 177L272 181L273 181L272 177M216 178L217 179L216 178M221 178L222 179L221 178M220 179L221 180L220 179M288 179L289 180L288 179M215 180L216 181L215 180M219 180L220 181L219 180M214 181L215 182L214 181M218 181L219 182L218 181M243 181L243 182L247 182L243 181M217 182L218 183L217 182M241 182L242 183L241 182z"/>
<path style="fill:#f17822; stroke:none;" d="M240 187C246.514 187.059 249.964 188.83 254 194L215 195L139 195L139 199L167 200L167 201C159.925 202.126 152.082 199.979 146.148 205.394C143.692 207.635 141.26 213.331 144.603 215.972C151.862 221.707 163.181 211.206 169 223C162.547 224.703 157.674 225.607 154 219L147 224L169 234L165 227C174.05 226.073 180.977 218.244 169.996 212.919C161.672 208.882 154.606 211.315 146 212C153.559 201.989 164.835 205.75 175 209C175.04 197.799 181.648 199 191 199L191 200L187 202C192.914 213.289 189.892 212.734 180 210C181.977 218.314 189.37 226.31 198 227L191 217L211 215C211.067 217.983 214.821 234.069 219.411 224.556C222.427 218.306 220 205.913 220 199L238 199L238 200L233 202L237 215L226 211C229.254 218.688 235.808 228.064 245 226L238 217C247.333 215.094 245.71 205.624 242 199L252 199C252.147 206.112 251.03 216.176 252.407 222.927C253.046 226.058 257.664 227.803 259.972 225.182C263.64 221.018 260.308 209.295 261.148 204.019C261.728 200.378 264.92 198.421 266 195C259.002 194.471 245.499 172.043 240 187z"/>
<path style="fill:#afb5bd; stroke:none;" d="M249.667 182.333L250.333 182.667L249.667 182.333M213 183L214 184L213 183M216 183L217 184L216 183M212 184L211 188L214 187L212 184M215 184L216 185L215 184M240 184L241 185L240 184M253 184L254 185L253 184M273 184L273 188L274 188L273 184M303.667 184.333L304.333 184.667L303.667 184.333M214 185L215 186L214 185M254 185L255 186L254 185M300 185L300 192L301 192L302 186L300 185z"/>
<path style="fill:#2e90cf; stroke:none;" d="M302.24 185.786C297.504 187.732 301.833 192.984 305.84 191.378C310.646 189.452 306.212 184.154 302.24 185.786z"/>
<path style="fill:#afb5bd; stroke:none;" d="M306.667 185.333L307.333 185.667L306.667 185.333M239 186L240 187L239 186M255 186L256 187L255 186M288 186L288 191L289 191L288 186M308.333 186.667L308.667 187.333L308.333 186.667M246.667 187.333L247.333 187.667L246.667 187.333M249 188L250 189L249 188M256 188L257 189L256 188M309.333 188.667L309.667 189.333L309.333 188.667M250 189L251 190L250 189M257 189L258 190L257 189M251 190L252 191L251 190M274 190L274 195L275 195L274 190M308 190L309 191L308 190M252 191L253 192L252 191M258.333 191.667L258.667 192.333L258.333 191.667M307 191L308 192L307 191M302 192L302 193L306 193L302 192M253 193L254 194L253 193M259 193L260 194L259 193M139 194L139 195L253 195L218 194L139 194M260 194L260 195L266 195L260 194M324 200L324 201L322 201L322 202L327 200L327 199L295 199L295 195L424 195L424 199L343 199C347.356 201.812 355.78 200 361 200L407 200C409.309 200 427.926 201.298 423.914 195.584C420.72 191.037 400.296 194 395 194L320 194C315.228 194 298.027 191.396 295.086 195.584C292.759 198.899 297.925 199.889 300.005 199.981C307.971 200.332 316.025 200 324 200M138 195L138 199L139 199L138 195z"/>
<path style="fill:#2e90cf; stroke:none;" d="M295 195L295 199L327 199L327 200C319.923 202.75 315.333 205.995 312 213C321.672 215.859 331.797 211.829 339 221C330.478 221 320.016 218.816 314 226C321.254 226 331.193 227.752 338 224.991C343.655 222.697 349.092 215.553 341.941 211.442C336.044 208.052 327.608 208.648 321 208C330.531 199.214 340.617 212.01 349 202L343 200L343 199L424 199L424 195L295 195z"/>
<path style="fill:#afb5bd; stroke:none;" d="M266.333 196.667L266.667 197.333L266.333 196.667z"/>
<path style="fill:#155ea0; stroke:none;" d="M297 196L298 197L297 196M327 196L328 197L327 196M421 196L422 197L421 196z"/>
<path style="fill:#afb5bd; stroke:none;" d="M275 197L275 201L276 201L275 197M265 198L266 199L265 198M147 199L147 200L150 200L147 199M165 199L166 200L165 199M176 199L177 200L176 199M190 199L191 200L190 199M196.333 199.667L196.667 200.333L196.333 199.667z"/>
<path style="fill:#fefefe; stroke:none;" d="M197 199L199 212C203.505 211.794 217.353 206.334 209.397 200.028C206.612 197.821 200.356 199 197 199z"/>
<path style="fill:#afb5bd; stroke:none;" d="M210 199L211 200L210 199M220.667 199.333L221.333 199.667L220.667 199.333M235 201L238 199L235 201M242.667 199.333L243.333 199.667L242.667 199.333M251 199L252 200L251 199M262 199L263 200L262 199M166 200L167 201L166 200M175 200L175 209L176 209L175 200M189 200L190 201L189 200M261 200L261 226L262 226L261 200M153 201L153 202L156 202L153 201M162 201L162 202L166 202L162 201M186 201L186 203L188 201L186 201M233 201L234 202L233 201M243 201L244 202L243 201z"/>
<path style="fill:#155ea0; stroke:none;" d="M327 201L327 202L330 202L327 201z"/>
<path style="fill:#afb5bd; stroke:none;" d="M347.667 201.333L348.333 201.667L347.667 201.333M150 202L151 203L150 202M197 202L198 203L197 202M220 202L220 205L221 205L220 202M232 202L233 203L232 202M301 202L302 203L301 202M304 202L304 203C310.67 206.678 308 219.298 308 226L300 226L300 203L299 203L299 213C299 215.332 298.961 217.668 299.005 219.999C299.085 224.226 303.609 230.903 307.972 225.397C311.825 220.534 310.367 203.389 304 202M320 202L321 203L320 202M349 202L350 203L349 202M363 227L364 210L363 210L362 226L354 226C354 219.22 351.021 205.422 359 203C350.826 200.158 350.771 221.283 354.028 225.397C355.888 227.746 360.374 226.998 363 227M360 202L361 203L360 202M391.667 202.333L392.333 202.667L391.667 202.333M395 202L395 203L405 203L395 202M406 202L406 203L414 203L406 202M148 203L149 204L148 203M187 203L188 204L187 203M198.333 203.667L198.667 204.333L198.333 203.667M233 203L234 204L233 203M244 203L245 204L244 203M276 203L276 207L277 207L276 203z"/>
<path style="fill:#2e90cf; stroke:none;" d="M300 203L300 226L308 226C308 217.152 311.794 203.14 300 203z"/>
<path style="fill:#afb5bd; stroke:none;" d="M318 203L319 204L318 203z"/>
<path style="fill:#155ea0; stroke:none;" d="M322 203L323 204L322 203z"/>
<path style="fill:#afb5bd; stroke:none;" d="M325 203L325 204L330 204L325 203M348 203L349 204L348 203z"/>
<path style="fill:#2e90cf; stroke:none;" d="M354 226L362 226C362 222.039 360.832 215.761 363.028 212.279C367.375 205.383 375.39 211.091 378 216C384.396 213.259 386.92 205.77 377.996 204.232C372.33 203.256 367.237 206.503 362 208L362 203C350.206 203.14 354 217.152 354 226z"/>
<path style="fill:#afb5bd; stroke:none;" d="M362 203C362.064 205.993 361.946 207.346 365 208L365 207L362 203M373 203L373 204L379 204L373 203M389 203C389 208.723 387.017 219.055 390.603 223.852C393.82 228.155 417.458 229.834 420.972 225.397C425.49 219.692 421.89 205.906 416 203L416 204C422.788 209.38 421 218.139 421 226C413.72 226 395.112 229.399 391.028 221.941C387.958 216.337 391.453 208.846 389 203z"/>
<path style="fill:#2e90cf; stroke:none;" d="M390 203C390 208.412 387.926 219.317 391.603 223.682C396.213 229.154 414.333 226 421 226C421 220.417 422.807 210.925 419.258 206.228C414.421 199.827 397.203 203 390 203z"/>
<path style="fill:#afb5bd; stroke:none;" d="M146 204L147 205L146 204M188 204L189 205L188 204M234 204L235 205L234 204M317 204L318 205L317 204M324 204L325 205L324 204M332.667 204.333L333.333 204.667L332.667 204.333M347 204L348 205L347 204z"/>
<path style="fill:#155ea0; stroke:none;" d="M359 204L360 205L359 204z"/>
<path style="fill:#afb5bd; stroke:none;" d="M370.667 204.333L371.333 204.667L370.667 204.333M380.667 204.333L381.333 204.667L380.667 204.333z"/>
<path style="fill:#155ea0; stroke:none;" d="M391 204L391 205L394 205L391 204M405 204L406 205L405 204M414.667 204.333L415.333 204.667L414.667 204.333z"/>
<path style="fill:#afb5bd; stroke:none;" d="M145 205L146 206L145 205M155 205L155 206L163 206L155 205M235 205L236 206L235 205M245 205L245 213L246 213L245 205M252 205L252 220L253 220L252 205M316 205L317 206L316 205M323 205L324 206L323 205M335.667 205.333L336.333 205.667L335.667 205.333M345.667 205.333L346.333 205.667L345.667 205.333M367.667 205.333L368.333 205.667L367.667 205.333M382 205L383 206L382 205M144 206L145 207L144 206M152 206L153 207L152 206M165.667 206.333L166.333 206.667L165.667 206.333M189 206L190 207L189 206M199 206L199 211L200 211L199 206M315 206L316 207L315 206M322 206L321 208L323 208L322 206M338 206L339 207L338 206M344 206L345 207L344 206M365.667 206.333L366.333 206.667L365.667 206.333M383 206L384 207L383 206M143 207L144 208L143 207M149.667 207.333L150.333 207.667L149.667 207.333M169.667 207.333L170.333 207.667L169.667 207.333M220.333 207.667L220.667 208.333L220.333 207.667M236.333 207.667L236.667 208.333L236.333 207.667M314.333 207.667L314.667 208.333L314.333 207.667M340 207L340 208L344 208L340 207M384.333 207.667L384.667 208.333L384.333 207.667M148 208L149 209L148 208M172.667 208.333L173.333 208.667L172.667 208.333M190 208L191 209L190 208M323 208L324 209L323 208M326 208L326 209L335 209L326 208M142 209L142 215L143 215L142 209M147 209L148 210L147 209M181.667 209.333L182.333 209.667L181.667 209.333M209 209L210 210L209 209M227.667 209.333L228.333 209.667L227.667 209.333M237 209L237 213L238 213L237 209M313 209L314 210L313 209M336 209L336 210L339 210L336 209M366 209L366 210L373 210L366 209M397 209L397 220L398 220L398 210L412 210L412 220L413 220L413 209L397 209M146.333 210.667L146.667 211.333L146.333 210.667M153 210L153 211L156 211L153 210M162 210L162 211L165 211L162 210M179 210L179 213L180 213L179 210M183 210L184 211L183 210M207 210L208 211L207 210M226 210L227 211L226 210M277 210L277 214L278 214L277 210M312.333 210.667L312.667 211.333L312.333 210.667M340 210L341 211L340 210M374 210L375 211L374 210M385 210L386 211L385 210z"/>
<path style="fill:#fefefe; stroke:none;" d="M398 210L398 220L412 220L412 210L398 210z"/>
<path style="fill:#afb5bd; stroke:none;" d="M148 211L148 212L151 212L148 211M166.667 211.333L167.333 211.667L166.667 211.333M184 211L185 212L184 211M191.333 211.667L191.667 212.333L191.333 211.667M204.667 211.333L205.333 211.667L204.667 211.333M225.333 211.667L225.667 212.333L225.333 211.667M230 211L231 212L230 211M342 211L343 212L342 211M375 211L376 212L375 211z"/>
<path style="fill:#155ea0; stroke:none;" d="M382 211L383 212L382 211z"/>
<path style="fill:#afb5bd; stroke:none;" d="M169.667 212.333L170.333 212.667L169.667 212.333M185 212L186 213L185 212M199 212L199 213L203 213L199 212M311 212L311 214L313 214L311 212M344 212L345 213L344 212M376.333 212.667L376.667 213.333L376.333 212.667M384 212L385 213L384 212M171 213L172 214L171 213M180 213L181 214L180 213M186 213L187 214L186 213M190 213L191 214L190 213M226 213L227 214L226 213M232 213L233 214L232 213M345 213L346 214L345 213M382.667 213.333L383.333 213.667L382.667 213.333M173 214L174 215L173 214M181 214L182 215L181 214M187 214L187 215L190 215L187 214M220 214L221 215L220 214M227 214L228 215L227 214M234 214L234 215L237 215L234 214M244 214L245 215L244 214M320 214L320 215L329 215L320 214M346 214L346 219L347 219L346 214M377 214L380 217L380 216L377 214M381 214L382 215L381 214M174 215L175 216L174 215M196 215L196 216L199 216L196 215M207.667 215.333L208.333 215.667L207.667 215.333M210 215L211 216L210 215M228 215L229 216L228 215M243 215L244 216L243 215M330 215L330 216L333 216L330 215M380 215L381 216L380 215M143 216L144 217L143 216M152 216L152 217L160 217L152 216M175 216L176 217L175 216M182 216L183 217L182 216M195 216L196 217L195 216M241 216L242 217L241 216M278 216L278 220L279 220L278 216M333.667 216.333L334.333 216.667L333.667 216.333M144 217L144 218L148 218L144 217M163.667 217.333L164.333 217.667L163.667 217.333M176.333 217.667L176.667 218.333L176.333 217.667M183 217L184 218L183 217M191 217L191 219L193 217L191 217M220 217L220 220L221 220L220 217M238.667 217.333L239.333 217.667L238.667 217.333M335.667 217.333L336.333 217.667L335.667 217.333M166 218L167 219L166 218M184 218L185 219L184 218M230 218L231 219L230 218M337 218L338 219L337 218z"/>
<path style="fill:#155ea0; stroke:none;" d="M343 218L344 219L343 218z"/>
<path style="fill:#afb5bd; stroke:none;" d="M150.667 219.333L151.333 219.667L150.667 219.333M167 219L168 220L167 219M185 219L186 220L185 219M192 219L193 220L192 219M231 219L232 220L231 219M238 219L239 220L238 219M338.333 219.667L338.667 220.333L338.333 219.667M345 219L346 220L345 219M154 220L155 221L154 220M168 220L168 223L169 223L168 220M186 220L187 221L186 220M193 220L194 221L193 220M211.333 220.667L211.667 221.333L211.333 220.667M232 220L233 221L232 220M240 220L241 221L240 220M344 220L345 221L344 220M147 221L148 222L147 221M176 221L177 222L176 221M194 221L195 222L194 221M220 221L220 224L221 224L220 221M241 221L242 222L241 221M318 221L319 222L318 221M343 221L344 222L343 221M146 222L147 223L146 222M155 222L156 223L155 222M187 222L188 223L187 222M195 222L196 223L195 222M317 222L318 223L317 222M342 222L343 223L342 222M156.667 223.333L157.333 223.667L156.667 223.333M166 223L167 224L166 223M175 223L176 224L175 223M188 223L189 224L188 223M196 223L197 224L196 223M243 223L244 224L243 223M279 223L279 227L280 227L279 223M315 223L316 224L315 223M341 223L342 224L341 223M148 224L149 225L148 224M159 224L159 225L165 225L159 224M173 224L174 225L173 224M189 224L190 225L189 224M197 224L198 225L197 224M235 224L236 225L235 224M244 224L245 225L244 224M314 224L315 225L314 224M339 224L340 225L339 224M150 225L151 226L150 225M171.667 225.333L172.333 225.667L171.667 225.333M190 225L191 226L190 225M198.333 225.667L198.667 226.333L198.333 225.667M211 225L211 227L213 227L211 225M236 225L237 226L236 225M245 225L244 227L246 227L245 225M252 225L252 227L254 227L252 225M312 226L312 227L337 227L312 226M337.667 225.333L338.333 225.667L337.667 225.333M151.667 226.333L152.333 226.667L151.667 226.333M169 226L170 227L169 226M191 226L192 227L191 226M193.667 226.333L194.333 226.667L193.667 226.333M215 226L216 227L215 226M218.667 226.333L219.333 226.667L218.667 226.333M237 226L238 227L237 226M241.667 226.333L242.333 226.667L241.667 226.333M255 226L255 227L258 227L255 226M259.667 226.333L260.333 226.667L259.667 226.333M154.667 227.333L155.333 227.667L154.667 227.333M165 227L166 228L165 227M156 228L157 229L156 228M165 229L166 230L165 229M280 229L280 234L281 234L280 229M158 230L159 231L158 230M166 230L167 231L166 230M167 231L168 232L167 231M159 232L160 233L159 232M160 233L161 234L160 233M169 233L162 234L162 235L169 233M281 237L281 241L282 241L281 237M282 242L282 246L283 246L282 242M283 249L283 253L284 253L283 249M284 256L284 260L285 260L284 256M285 262L285 267L286 267L285 262M287 267L287 274L288 274L287 267M428 284L429 285L428 284z"/>
<path style="fill:#2e90cf; stroke:none;" d="M434 293C418.107 302.423 422.857 281.951 435 288C425.703 273.326 414.131 305.984 430.862 296.302C432.284 295.479 433.012 294.246 434 293z"/>
<path style="fill:#afb5bd; stroke:none;" d="M432 284L433 285L432 284M426 285L427 286L426 285z"/>
<path style="fill:#155ea0; stroke:none;" d="M428.999 285.801C423.329 286.727 418.875 297.528 427.019 296.713C433.814 296.033 437.325 284.44 428.999 285.801z"/>
<path style="fill:#afb5bd; stroke:none;" d="M433 285L434 286L433 285M423 287L424 288L423 287M435 287L434 294L435 294L435 287M422 288L423 289L422 288M421 290L422 291L421 290M379 294L379 295L384 295L384 296L373 295L373 296L377 296L376 298L383 299L383 298L380 298L380 297L389 298L389 297L387 297L387 296L395 295L415 292C405.315 287.945 389.417 293.785 379 294z"/>
<path style="fill:#2e90cf; stroke:none;" d="M434 291L435 292L434 291z"/>
<path style="fill:#afb5bd; stroke:none;" d="M420 292L420 295L421 295L420 292z"/>
<path style="fill:#2e90cf; stroke:none;" d="M388 294L389 295L388 294z"/>
<path style="fill:#afb5bd; stroke:none;" d="M433 294L434 295L433 294z"/>
<path style="fill:#2e90cf; stroke:none;" d="M378 295L378 296L384 296L378 295M395 295L396 296L395 295z"/>
<path style="fill:#afb5bd; stroke:none;" d="M432 295L433 296L432 295M367 296L367 297L370 297L367 296z"/>
<path style="fill:#2e90cf; stroke:none;" d="M343 302L377 297C371.117 294.554 347.182 297.14 343 302M387 296L387 297L392 297L387 296z"/>
<path style="fill:#afb5bd; stroke:none;" d="M421 296L422 297L421 296M431 296L432 297L431 296M360 297L360 298L363 298L360 297M370 298L370 299L375 298L370 298z"/>
<path style="fill:#fefefe; stroke:none;" d="M375 297L376 298L375 297z"/>
<path style="fill:#2e90cf; stroke:none;" d="M380 297L380 298L386 298L380 297z"/>
<path style="fill:#afb5bd; stroke:none;" d="M422 297L423 298L422 297M429 297L430 298L429 297M353 298L353 299L356 299L353 298M364 298L368 300L364 298z"/>
<path style="fill:#fefefe; stroke:none;" d="M367 298L367 299L370 299L367 298z"/>
<path style="fill:#2e90cf; stroke:none;" d="M362 300L362 301L380 299L362 300z"/>
<path style="fill:#afb5bd; stroke:none;" d="M424 298L424 299L428 299L424 298M346 299L346 300L349 300L346 299M358 299L358 300L362 301L362 300L358 299z"/>
<path style="fill:#fefefe; stroke:none;" d="M360 299L360 300L364 300L360 299z"/>
<path style="fill:#afb5bd; stroke:none;" d="M375 299L375 300L378 300L375 299M340 300L340 301L343 301L340 300M352 300L352 301L356 302L352 300z"/>
<path style="fill:#fefefe; stroke:none;" d="M355 300L355 301L359 301L355 300z"/>
<path style="fill:#afb5bd; stroke:none;" d="M370 300L370 301L373 301L370 300M334 301L334 302L337 302L334 301z"/>
<path style="fill:#2e90cf; stroke:none;" d="M337 301L337 302L342 302L337 301z"/>
<path style="fill:#155ea0; stroke:none;" d="M342 301L343 302L342 301z"/>
<path style="fill:#afb5bd; stroke:none;" d="M346 301L346 302L351 303L346 301z"/>
<path style="fill:#fefefe; stroke:none;" d="M350 301L350 302L353 302L350 301z"/>
<path style="fill:#2e90cf; stroke:none;" d="M356 301L356 302L361 303L356 301z"/>
<path style="fill:#155ea0; stroke:none;" d="M361.667 301.333L362.333 301.667L361.667 301.333z"/>
<path style="fill:#afb5bd; stroke:none;" d="M366.667 301.333L367.333 301.667L366.667 301.333M329 302L329 303L332 303L329 302z"/>
<path style="fill:#2e90cf; stroke:none;" d="M332 302L332 303L336 303L332 302z"/>
<path style="fill:#155ea0; stroke:none;" d="M336.667 302.333L337.333 302.667L336.667 302.333z"/>
<path style="fill:#afb5bd; stroke:none;" d="M340 302L340 303L346 304L340 302z"/>
<path style="fill:#fefefe; stroke:none;" d="M344 302L344 303L348 303L344 302z"/>
<path style="fill:#2e90cf; stroke:none;" d="M351 302L351 303L356 304L351 302z"/>
<path style="fill:#155ea0; stroke:none;" d="M355 302L355 303L358 303L355 302z"/>
<path style="fill:#afb5bd; stroke:none;" d="M361 302L361 303L364 303L361 302M323 303L323 304L326 304L323 303z"/>
<path style="fill:#2e90cf; stroke:none;" d="M326 303L326 304L330 305L326 303z"/>
<path style="fill:#155ea0; stroke:none;" d="M330 303L330 304L333 304L330 303z"/>
<path style="fill:#afb5bd; stroke:none;" d="M335 303L335 304L341 305L341 304L335 303z"/>
<path style="fill:#fefefe; stroke:none;" d="M338 303L338 304L343 304L338 303z"/>
<path style="fill:#2e90cf; stroke:none;" d="M346 303L346 304L351 305L346 303z"/>
<path style="fill:#155ea0; stroke:none;" d="M350 303L350 304L353 304L350 303z"/>
<path style="fill:#afb5bd; stroke:none;" d="M356 303L356 304L359 304L356 303M317 304L317 305L321 305L317 304z"/>
<path style="fill:#2e90cf; stroke:none;" d="M321 304L321 305L325 306L321 304z"/>
<path style="fill:#155ea0; stroke:none;" d="M324 304L324 305L327 305L324 304z"/>
<path style="fill:#afb5bd; stroke:none;" d="M330 304L330 305L335 306L335 305L330 304z"/>
<path style="fill:#fefefe; stroke:none;" d="M333 304L333 305L337 305L333 304z"/>
<path style="fill:#2e90cf; stroke:none;" d="M341 304L341 305L347 306L347 305L341 304z"/>
<path style="fill:#155ea0; stroke:none;" d="M344 304L344 305L348 305L344 304z"/>
<path style="fill:#afb5bd; stroke:none;" d="M351 304L351 305L354 305L351 304M312 305L312 306L316 306L312 305z"/>
<path style="fill:#2e90cf; stroke:none;" d="M316 305L320 307L316 305z"/>
<path style="fill:#155ea0; stroke:none;" d="M319 305L319 306L322 306L319 305z"/>
<path style="fill:#afb5bd; stroke:none;" d="M325 305L325 306L330 307L330 306L325 305z"/>
<path style="fill:#fefefe; stroke:none;" d="M328 305L328 306L332 306L328 305z"/>
<path style="fill:#2e90cf; stroke:none;" d="M335 305L335 306L338 306L335 305z"/>
<path style="fill:#155ea0; stroke:none;" d="M318 527L318 526C268.879 529.877 222.595 540.421 173 533.271C151.69 530.199 128.227 524.177 112.285 508.7C77.643 475.068 94.9414 426.009 126 397.09C169.605 356.487 233.353 334.079 290 319.116C307.573 314.474 325.811 307.448 344 306C338.472 303.745 330.676 306.865 325 308C308.929 311.214 292.906 315.15 277 319.127C230.968 330.635 184.366 345.552 143 369.15C120.124 382.201 98.5957 397.283 84.4252 420C78.9699 428.746 75.464 437.829 73.7531 448C72.3922 456.091 72.4029 462.874 73.5795 471C81.5506 526.048 141.02 540.997 189 541C233.257 541.003 274.402 532.63 318 527z"/>
<path style="fill:#afb5bd; stroke:none;" d="M347.667 305.333L348.333 305.667L347.667 305.333M307 306L307 307L310 307L307 306z"/>
<path style="fill:#2e90cf; stroke:none;" d="M310 306L310 307L315 308L310 306z"/>
<path style="fill:#155ea0; stroke:none;" d="M313 306L313 307L316 307L313 306z"/>
<path style="fill:#afb5bd; stroke:none;" d="M320 306L320 307L325 308L325 307L320 306z"/>
<path style="fill:#fefefe; stroke:none;" d="M323 306L323 307L327 307L323 306z"/>
<path style="fill:#2e90cf; stroke:none;" d="M330 306L330 307L333 307L330 306M339 306L339 307L342 307L339 306z"/>
<path style="fill:#afb5bd; stroke:none;" d="M342 306L342 307L345 307L342 306M302 307L302 308L305 308L302 307z"/>
<path style="fill:#2e90cf; stroke:none;" d="M305 307L306 309L300 308L300 309L310 309L305 307z"/>
<path style="fill:#155ea0; stroke:none;" d="M308 307L308 308L311 308L308 307z"/>
<path style="fill:#afb5bd; stroke:none;" d="M315.667 307.333L316.333 307.667L315.667 307.333z"/>
<path style="fill:#fefefe; stroke:none;" d="M313 308L313 309L322 308L313 308z"/>
<path style="fill:#2e90cf; stroke:none;" d="M325 307L325 308L328 308L325 307M334 307L334 308L338 308L334 307z"/>
<path style="fill:#afb5bd; stroke:none;" d="M338.667 307.333L339.333 307.667L338.667 307.333M322 315C319.832 314.284 318.969 313.706 319 316L315 317C312.832 316.284 311.969 315.706 312 318L308 319L303 318L303 319C317.963 321.126 337.178 311.059 352 308C346.34 305.975 325.876 310.392 322 315M298.667 308.333L299.333 308.667L298.667 308.333z"/>
<path style="fill:#155ea0; stroke:none;" d="M303 308L303 309L306 309L303 308z"/>
<path style="fill:#afb5bd; stroke:none;" d="M310 308L310 309L313 309L310 308M318.667 308.333L319.333 308.667L318.667 308.333z"/>
<path style="fill:#2e90cf; stroke:none;" d="M320 308L320 309L323 309L320 308M318 311L318 312L333 309L318 311z"/>
<path style="fill:#afb5bd; stroke:none;" d="M333 308L333 309L336 309L333 308M293 309L293 310L296 310L293 309z"/>
<path style="fill:#2e90cf; stroke:none;" d="M296 309C296 312.085 293.442 310.45 291 310L291 311L301 311L301 310L296 309z"/>
<path style="fill:#155ea0; stroke:none;" d="M298 309L298 310L302 310L298 309z"/>
<path style="fill:#afb5bd; stroke:none;" d="M306.667 309.333L307.333 309.667L306.667 309.333M313.667 309.333L314.333 309.667L313.667 309.333z"/>
<path style="fill:#2e90cf; stroke:none;" d="M315 309L315 310L318 310L315 309z"/>
<path style="fill:#afb5bd; stroke:none;" d="M329.667 309.333L330.333 309.667L329.667 309.333M288 310L288 311L291 311L288 310z"/>
<path style="fill:#155ea0; stroke:none;" d="M293 310L293 311L297 311L293 310z"/>
<path style="fill:#afb5bd; stroke:none;" d="M301.667 310.333L302.333 310.667L301.667 310.333M309.667 310.333L310.333 310.667L309.667 310.333z"/>
<path style="fill:#2e90cf; stroke:none;" d="M311.667 310.333L312.333 310.667L311.667 310.333z"/>
<path style="fill:#afb5bd; stroke:none;" d="M325.667 310.333L326.333 310.667L325.667 310.333M284.667 311.333L285.333 311.667L284.667 311.333z"/>
<path style="fill:#2e90cf; stroke:none;" d="M286 311L286 312L289 312L286 311z"/>
<path style="fill:#155ea0; stroke:none;" d="M164 348C168.155 355.325 188.654 342.965 195 340.284C225.902 327.227 260.215 318.763 293 312C284.498 308.959 266.781 316.442 258 318.627C225.986 326.591 195.655 339.359 164 348z"/>
<path style="fill:#afb5bd; stroke:none;" d="M297.667 311.333L298.333 311.667L297.667 311.333M304.667 311.333L305.333 311.667L304.667 311.333z"/>
<path style="fill:#2e90cf; stroke:none;" d="M306 311L306 312L310 312L306 311z"/>
<path style="fill:#afb5bd; stroke:none;" d="M321.667 311.333L322.333 311.667L321.667 311.333M279.667 312.333L280.333 312.667L279.667 312.333z"/>
<path style="fill:#2e90cf; stroke:none;" d="M281 312L281 313L285 313L281 312M290.667 312.333L291.333 312.667L290.667 312.333z"/>
<path style="fill:#afb5bd; stroke:none;" d="M292.667 312.333L293.333 312.667L292.667 312.333M300.667 312.333L301.333 312.667L300.667 312.333z"/>
<path style="fill:#2e90cf; stroke:none;" d="M302 312L302 313L306 313L302 312M314 312L314 313L317 313L314 312z"/>
<path style="fill:#afb5bd; stroke:none;" d="M317.667 312.333L318.333 312.667L317.667 312.333M274.667 313.333L275.333 313.667L274.667 313.333z"/>
<path style="fill:#2e90cf; stroke:none;" d="M276 313L276 314L281 314L276 313M286.667 313.333L287.333 313.667L286.667 313.333z"/>
<path style="fill:#afb5bd; stroke:none;" d="M288.667 313.333L289.333 313.667L288.667 313.333M296.667 313.333L297.333 313.667L296.667 313.333z"/>
<path style="fill:#2e90cf; stroke:none;" d="M298 313L298 314L302 314L298 313M311.667 313.333L312.333 313.667L311.667 313.333z"/>
<path style="fill:#afb5bd; stroke:none;" d="M313.667 313.333L314.333 313.667L313.667 313.333M270.667 314.333L271.333 314.667L270.667 314.333z"/>
<path style="fill:#2e90cf; stroke:none;" d="M272 314L272 315L276 315L272 314M281.667 314.333L282.333 314.667L281.667 314.333z"/>
<path style="fill:#afb5bd; stroke:none;" d="M283 314L283 315L286 315L283 314M291.667 314.333L292.333 314.667L291.667 314.333z"/>
<path style="fill:#2e90cf; stroke:none;" d="M293 314L293 315L297 315L293 314M307.667 314.333L308.333 314.667L307.667 314.333z"/>
<path style="fill:#afb5bd; stroke:none;" d="M309.667 314.333L310.333 314.667L309.667 314.333z"/>
<path style="fill:#2e90cf; stroke:none;" d="M321 314L322 315L321 314z"/>
<path style="fill:#afb5bd; stroke:none;" d="M266.667 315.333L267.333 315.667L266.667 315.333z"/>
<path style="fill:#2e90cf; stroke:none;" d="M268 315L268 316L272 316L268 315M277.667 315.333L278.333 315.667L277.667 315.333z"/>
<path style="fill:#afb5bd; stroke:none;" d="M279 315L279 316L282 316L279 315M287.667 315.333L288.333 315.667L287.667 315.333z"/>
<path style="fill:#2e90cf; stroke:none;" d="M289 315L289 316L293 316L289 315M303.667 315.333L304.333 315.667L303.667 315.333z"/>
<path style="fill:#afb5bd; stroke:none;" d="M305.667 315.333L306.333 315.667L305.667 315.333z"/>
<path style="fill:#2e90cf; stroke:none;" d="M317.667 315.333L318.333 315.667L317.667 315.333z"/>
<path style="fill:#afb5bd; stroke:none;" d="M262.667 316.333L263.333 316.667L262.667 316.333z"/>
<path style="fill:#2e90cf; stroke:none;" d="M264 316L264 317L268 317L264 316M273.667 316.333L274.333 316.667L273.667 316.333z"/>
<path style="fill:#afb5bd; stroke:none;" d="M275 316L275 317L278 317L275 316M283.667 316.333L284.333 316.667L283.667 316.333z"/>
<path style="fill:#2e90cf; stroke:none;" d="M285 316L285 317L288 317L285 316M299.667 316.333L300.333 316.667L299.667 316.333z"/>
<path style="fill:#afb5bd; stroke:none;" d="M301 316L301 317L304 317L301 316z"/>
<path style="fill:#2e90cf; stroke:none;" d="M314 316L315 317L314 316z"/>
<path style="fill:#afb5bd; stroke:none;" d="M257 317L257 318L260 318L257 317z"/>
<path style="fill:#2e90cf; stroke:none;" d="M260 317L260 318L263 318L260 317M269.667 317.333L270.333 317.667L269.667 317.333z"/>
<path style="fill:#afb5bd; stroke:none;" d="M271 317L271 318L274 318L271 317M279.667 317.333L280.333 317.667L279.667 317.333z"/>
<path style="fill:#2e90cf; stroke:none;" d="M281 317L281 318L284 318L281 317M295 317L295 318L298 318L295 317z"/>
<path style="fill:#afb5bd; stroke:none;" d="M298.667 317.333L299.333 317.667L298.667 317.333z"/>
<path style="fill:#2e90cf; stroke:none;" d="M310.667 317.333L311.333 317.667L310.667 317.333z"/>
<path style="fill:#afb5bd; stroke:none;" d="M253 318L253 319L256 319L253 318z"/>
<path style="fill:#2e90cf; stroke:none;" d="M256 318L256 319L259 319L256 318M265.667 318.333L266.333 318.667L265.667 318.333z"/>
<path style="fill:#afb5bd; stroke:none;" d="M267 318L267 319L270 319L267 318M275.667 318.333L276.333 318.667L275.667 318.333z"/>
<path style="fill:#2e90cf; stroke:none;" d="M277 318L277 319L280 319L277 318M292.667 318.333L293.333 318.667L292.667 318.333z"/>
<path style="fill:#afb5bd; stroke:none;" d="M294 318L294 319L297 319L294 318z"/>
<path style="fill:#2e90cf; stroke:none;" d="M306.667 318.333L307.333 318.667L306.667 318.333z"/>
<path style="fill:#afb5bd; stroke:none;" d="M249 319L249 320L252 320L249 319z"/>
<path style="fill:#2e90cf; stroke:none;" d="M252 319L252 320L255 320L252 319M261 319L261 320L264 320L261 319z"/>
<path style="fill:#afb5bd; stroke:none;" d="M264.667 319.333L265.333 319.667L264.667 319.333M271 319L271 320L274 320L271 319z"/>
<path style="fill:#2e90cf; stroke:none;" d="M274.667 319.333L275.333 319.667L274.667 319.333M288 319L288 320L291 320L288 319z"/>
<path style="fill:#afb5bd; stroke:none;" d="M291.667 319.333L292.333 319.667L291.667 319.333M300.667 319.333L301.333 319.667L300.667 319.333z"/>
<path style="fill:#2e90cf; stroke:none;" d="M269 330L272 331C279.035 324.616 296.737 321.917 306 320C298.173 317.223 275.965 325.617 269 330z"/>
<path style="fill:#afb5bd; stroke:none;" d="M245 320L245 321L248 321L245 320z"/>
<path style="fill:#2e90cf; stroke:none;" d="M248 320L248 321L251 321L248 320M257 320L257 321L260 321L257 320z"/>
<path style="fill:#afb5bd; stroke:none;" d="M260.667 320.333L261.333 320.667L260.667 320.333M267 320L267 321L270 321L267 320z"/>
<path style="fill:#2e90cf; stroke:none;" d="M270.667 320.333L271.333 320.667L270.667 320.333M281 321L281 322L287 321L281 321z"/>
<path style="fill:#afb5bd; stroke:none;" d="M287 320L287 321L290 321L287 320M296 320L296 321L299 321L296 320M303.667 320.333L304.333 320.667L303.667 320.333M242.667 321.333L243.333 321.667L242.667 321.333z"/>
<path style="fill:#2e90cf; stroke:none;" d="M244 321L244 322L247 322L244 321M246 323L246 324L256 322L246 323z"/>
<path style="fill:#afb5bd; stroke:none;" d="M256.667 321.333L257.333 321.667L256.667 321.333M264.667 321.333L265.333 321.667L264.667 321.333z"/>
<path style="fill:#2e90cf; stroke:none;" d="M266.667 321.333L267.333 321.667L266.667 321.333z"/>
<path style="fill:#afb5bd; stroke:none;" d="M284.667 321.333L285.333 321.667L284.667 321.333M293.667 321.333L294.333 321.667L293.667 321.333M299.667 321.333L300.333 321.667L299.667 321.333M238 322L238 323L241 323L238 322z"/>
<path style="fill:#2e90cf; stroke:none;" d="M241.667 322.333L242.333 322.667L241.667 322.333z"/>
<path style="fill:#afb5bd; stroke:none;" d="M253 322L254 323L253 322M260.667 322.333L261.333 322.667L260.667 322.333z"/>
<path style="fill:#2e90cf; stroke:none;" d="M262.667 322.333L263.333 322.667L262.667 322.333M265 326L265 327L280 323L265 326z"/>
<path style="fill:#afb5bd; stroke:none;" d="M280.667 322.333L281.333 322.667L280.667 322.333M290.667 322.333L291.333 322.667L290.667 322.333M296.667 322.333L297.333 322.667L296.667 322.333M235.667 323.333L236.333 323.667L235.667 323.333z"/>
<path style="fill:#2e90cf; stroke:none;" d="M237.667 323.333L238.333 323.667L237.667 323.333z"/>
<path style="fill:#afb5bd; stroke:none;" d="M249.667 323.333L250.333 323.667L249.667 323.333M257 323L258 324L257 323z"/>
<path style="fill:#2e90cf; stroke:none;" d="M258 323L258 324L261 324L258 323z"/>
<path style="fill:#afb5bd; stroke:none;" d="M277.667 323.333L278.333 323.667L277.667 323.333M286.667 323.333L287.333 323.667L286.667 323.333M293 323L294 324L293 323M231.667 324.333L232.333 324.667L231.667 324.333z"/>
<path style="fill:#2e90cf; stroke:none;" d="M233.667 324.333L234.333 324.667L233.667 324.333M239 325L239 326L245 325L239 325z"/>
<path style="fill:#afb5bd; stroke:none;" d="M245.667 324.333L246.333 324.667L245.667 324.333M253.667 324.333L254.333 324.667L253.667 324.333z"/>
<path style="fill:#2e90cf; stroke:none;" d="M255.667 324.333L256.333 324.667L255.667 324.333z"/>
<path style="fill:#afb5bd; stroke:none;" d="M274 324L275 325L274 324M283.667 324.333L284.333 324.667L283.667 324.333M289.667 324.333L290.333 324.667L289.667 324.333M228 325L229 326L228 325z"/>
<path style="fill:#2e90cf; stroke:none;" d="M229 325L229 326L232 326L229 325z"/>
<path style="fill:#afb5bd; stroke:none;" d="M242 325L243 326L242 325M250 325L251 326L250 325z"/>
<path style="fill:#2e90cf; stroke:none;" d="M251 325L251 326L254 326L251 325z"/>
<path style="fill:#afb5bd; stroke:none;" d="M270.667 325.333L271.333 325.667L270.667 325.333M280.667 325.333L281.333 325.667L280.667 325.333M286 325L287 326L286 325M224.667 326.333L225.333 326.667L224.667 326.333z"/>
<path style="fill:#2e90cf; stroke:none;" d="M226 326L226 327L229 327L226 326M236.667 326.333L237.333 326.667L236.667 326.333z"/>
<path style="fill:#afb5bd; stroke:none;" d="M238.667 326.333L239.333 326.667L238.667 326.333M246.667 326.333L247.333 326.667L246.667 326.333z"/>
<path style="fill:#2e90cf; stroke:none;" d="M248 326L248 327L251 327L248 326z"/>
<path style="fill:#afb5bd; stroke:none;" d="M267.667 326.333L268.333 326.667L267.667 326.333M277 326L278 327L277 326M283 326L284 327L283 326M221 327L222 328L221 327z"/>
<path style="fill:#2e90cf; stroke:none;" d="M222 327L222 328L226 328L222 327M233.667 327.333L234.333 327.667L233.667 327.333z"/>
<path style="fill:#afb5bd; stroke:none;" d="M235 327L236 328L235 327M243.667 327.333L244.333 327.667L243.667 327.333z"/>
<path style="fill:#2e90cf; stroke:none;" d="M245 327L245 328L248 328L245 327M262.667 327.333L263.333 327.667L262.667 327.333z"/>
<path style="fill:#afb5bd; stroke:none;" d="M264.667 327.333L265.333 327.667L264.667 327.333M274 327L275 328L274 327M280 327L281 328L280 327M217.667 328.333L218.333 328.667L217.667 328.333z"/>
<path style="fill:#2e90cf; stroke:none;" d="M219 328L219 329L222 329L219 328M229.667 328.333L230.333 328.667L229.667 328.333z"/>
<path style="fill:#afb5bd; stroke:none;" d="M231.667 328.333L232.333 328.667L231.667 328.333M240 328L241 329L240 328z"/>
<path style="fill:#2e90cf; stroke:none;" d="M241 328L241 329L244 329L241 328M259.667 328.333L260.333 328.667L259.667 328.333z"/>
<path style="fill:#afb5bd; stroke:none;" d="M261.667 328.333L262.333 328.667L261.667 328.333M271 328L272 329L271 328z"/>
<path style="fill:#155ea0; stroke:none;" d="M275 328L276 329L275 328z"/>
<path style="fill:#afb5bd; stroke:none;" d="M277.667 328.333L278.333 328.667L277.667 328.333M214.667 329.333L215.333 329.667L214.667 329.333z"/>
<path style="fill:#2e90cf; stroke:none;" d="M216 329L216 330L219 330L216 329M226.667 329.333L227.333 329.667L226.667 329.333z"/>
<path style="fill:#afb5bd; stroke:none;" d="M228.667 329.333L229.333 329.667L228.667 329.333M236.667 329.333L237.333 329.667L236.667 329.333z"/>
<path style="fill:#2e90cf; stroke:none;" d="M238 329L238 330L241 330L238 329M256.667 329.333L257.333 329.667L256.667 329.333z"/>
<path style="fill:#afb5bd; stroke:none;" d="M258.667 329.333L259.333 329.667L258.667 329.333M267.667 329.333L268.333 329.667L267.667 329.333z"/>
<path style="fill:#155ea0; stroke:none;" d="M272 329L273 330L272 329z"/>
<path style="fill:#afb5bd; stroke:none;" d="M274.667 329.333L275.333 329.667L274.667 329.333M211.667 330.333L212.333 330.667L211.667 330.333z"/>
<path style="fill:#2e90cf; stroke:none;" d="M213.667 330.333L214.333 330.667L213.667 330.333M223.667 330.333L224.333 330.667L223.667 330.333z"/>
<path style="fill:#afb5bd; stroke:none;" d="M225.667 330.333L226.333 330.667L225.667 330.333M233.667 330.333L234.333 330.667L233.667 330.333z"/>
<path style="fill:#2e90cf; stroke:none;" d="M235 330L235 331L238 331L235 330M253.667 330.333L254.333 330.667L253.667 330.333z"/>
<path style="fill:#afb5bd; stroke:none;" d="M255.667 330.333L256.333 330.667L255.667 330.333M264.667 330.333L265.333 330.667L264.667 330.333z"/>
<path style="fill:#2e90cf; stroke:none;" d="M266 330L268 332L268 330L266 330z"/>
<path style="fill:#155ea0; stroke:none;" d="M268.667 330.333L269.333 330.667L268.667 330.333z"/>
<path style="fill:#afb5bd; stroke:none;" d="M272 330L273 331L272 330M208.667 331.333L209.333 331.667L208.667 331.333z"/>
<path style="fill:#2e90cf; stroke:none;" d="M210.667 331.333L211.333 331.667L210.667 331.333M220.667 331.333L221.333 331.667L220.667 331.333z"/>
<path style="fill:#afb5bd; stroke:none;" d="M222.667 331.333L223.333 331.667L222.667 331.333M229.667 331.333L230.333 331.667L229.667 331.333z"/>
<path style="fill:#2e90cf; stroke:none;" d="M231 331L231 332L234 332L231 331M250.667 331.333L251.333 331.667L250.667 331.333z"/>
<path style="fill:#afb5bd; stroke:none;" d="M252.667 331.333L253.333 331.667L252.667 331.333M261.667 331.333L262.333 331.667L261.667 331.333z"/>
<path style="fill:#2e90cf; stroke:none;" d="M263 331L266 333L263 331z"/>
<path style="fill:#155ea0; stroke:none;" d="M265.667 331.333L266.333 331.667L265.667 331.333z"/>
<path style="fill:#afb5bd; stroke:none;" d="M268 331L268 332L271 332L268 331M205.667 332.333L206.333 332.667L205.667 332.333z"/>
<path style="fill:#2e90cf; stroke:none;" d="M207.667 332.333L208.333 332.667L207.667 332.333M217.667 332.333L218.333 332.667L217.667 332.333z"/>
<path style="fill:#afb5bd; stroke:none;" d="M219.667 332.333L220.333 332.667L219.667 332.333M226.667 332.333L227.333 332.667L226.667 332.333z"/>
<path style="fill:#2e90cf; stroke:none;" d="M228 332L228 333L231 333L228 332M247.667 332.333L248.333 332.667L247.667 332.333z"/>
<path style="fill:#afb5bd; stroke:none;" d="M249.667 332.333L250.333 332.667L249.667 332.333M258.667 332.333L259.333 332.667L258.667 332.333z"/>
<path style="fill:#2e90cf; stroke:none;" d="M260 332L263 334L260 332z"/>
<path style="fill:#155ea0; stroke:none;" d="M262.667 332.333L263.333 332.667L262.667 332.333z"/>
<path style="fill:#afb5bd; stroke:none;" d="M266.667 332.333L267.333 332.667L266.667 332.333M202.667 333.333L203.333 333.667L202.667 333.333z"/>
<path style="fill:#2e90cf; stroke:none;" d="M204.667 333.333L205.333 333.667L204.667 333.333M214.667 333.333L215.333 333.667L214.667 333.333z"/>
<path style="fill:#afb5bd; stroke:none;" d="M216.667 333.333L217.333 333.667L216.667 333.333M223.667 333.333L224.333 333.667L223.667 333.333z"/>
<path style="fill:#2e90cf; stroke:none;" d="M225.667 333.333L226.333 333.667L225.667 333.333M244.667 333.333L245.333 333.667L244.667 333.333z"/>
<path style="fill:#afb5bd; stroke:none;" d="M246.667 333.333L247.333 333.667L246.667 333.333M253 334L253 335L257 334L253 334z"/>
<path style="fill:#2e90cf; stroke:none;" d="M257 333L258 335L255 334L252 335L252 336L260 334L257 333z"/>
<path style="fill:#155ea0; stroke:none;" d="M259.667 333.333L260.333 333.667L259.667 333.333z"/>
<path style="fill:#afb5bd; stroke:none;" d="M263.667 333.333L264.333 333.667L263.667 333.333M199.667 334.333L200.333 334.667L199.667 334.333z"/>
<path style="fill:#2e90cf; stroke:none;" d="M201.667 334.333L202.333 334.667L201.667 334.333M211.667 334.333L212.333 334.667L211.667 334.333z"/>
<path style="fill:#afb5bd; stroke:none;" d="M213.667 334.333L214.333 334.667L213.667 334.333M220.667 334.333L221.333 334.667L220.667 334.333z"/>
<path style="fill:#2e90cf; stroke:none;" d="M222.667 334.333L223.333 334.667L222.667 334.333M241.667 334.333L242.333 334.667L241.667 334.333z"/>
<path style="fill:#afb5bd; stroke:none;" d="M243.667 334.333L244.333 334.667L243.667 334.333z"/>
<path style="fill:#155ea0; stroke:none;" d="M256.667 334.333L257.333 334.667L256.667 334.333z"/>
<path style="fill:#afb5bd; stroke:none;" d="M260.667 334.333L261.333 334.667L260.667 334.333M196.667 335.333L197.333 335.667L196.667 335.333z"/>
<path style="fill:#2e90cf; stroke:none;" d="M198.667 335.333L199.333 335.667L198.667 335.333M208.667 335.333L209.333 335.667L208.667 335.333z"/>
<path style="fill:#afb5bd; stroke:none;" d="M210.667 335.333L211.333 335.667L210.667 335.333M217.667 335.333L218.333 335.667L217.667 335.333z"/>
<path style="fill:#2e90cf; stroke:none;" d="M219.667 335.333L220.333 335.667L219.667 335.333M225 340L225 341L240 336L225 340z"/>
<path style="fill:#afb5bd; stroke:none;" d="M240.667 335.333L241.333 335.667L240.667 335.333M250.667 335.333L251.333 335.667L250.667 335.333z"/>
<path style="fill:#155ea0; stroke:none;" d="M253.667 335.333L254.333 335.667L253.667 335.333z"/>
<path style="fill:#afb5bd; stroke:none;" d="M258 335L259 336L258 335M193.667 336.333L194.333 336.667L193.667 336.333z"/>
<path style="fill:#2e90cf; stroke:none;" d="M195.667 336.333L196.333 336.667L195.667 336.333M194 340L194 341L207 337L194 340z"/>
<path style="fill:#afb5bd; stroke:none;" d="M207.667 336.333L208.333 336.667L207.667 336.333M214.667 336.333L215.333 336.667L214.667 336.333z"/>
<path style="fill:#2e90cf; stroke:none;" d="M216.667 336.333L217.333 336.667L216.667 336.333z"/>
<path style="fill:#afb5bd; stroke:none;" d="M238 336L239 337L238 336M248 336L249 337L248 336z"/>
<path style="fill:#2e90cf; stroke:none;" d="M249 336L250 338L249 338L247 337L246 337L247 339L244 338L245 340L244 340L227 345L227 346L235 345L234 343L238 344L238 343L236 343L236 342L240 343L239 341L242 342L241 340L242 340L252 338L252 337L249 336z"/>
<path style="fill:#155ea0; stroke:none;" d="M250 336L250 337L253 337L250 336z"/>
<path style="fill:#afb5bd; stroke:none;" d="M255 336L256 337L255 336M190.667 337.333L191.333 337.667L190.667 337.333z"/>
<path style="fill:#2e90cf; stroke:none;" d="M192.667 337.333L193.333 337.667L192.667 337.333z"/>
<path style="fill:#afb5bd; stroke:none;" d="M205 337L206 338L205 337M212 337L213 338L212 337z"/>
<path style="fill:#2e90cf; stroke:none;" d="M213.667 337.333L214.333 337.667L213.667 337.333z"/>
<path style="fill:#afb5bd; stroke:none;" d="M235 337L236 338L235 337M245 337L246 338L245 337z"/>
<path style="fill:#155ea0; stroke:none;" d="M248.667 337.333L249.333 337.667L248.667 337.333z"/>
<path style="fill:#afb5bd; stroke:none;" d="M252.667 337.333L253.333 337.667L252.667 337.333M187.667 338.333L188.333 338.667L187.667 338.333z"/>
<path style="fill:#2e90cf; stroke:none;" d="M189.667 338.333L190.333 338.667L189.667 338.333z"/>
<path style="fill:#afb5bd; stroke:none;" d="M202 338L203 339L202 338M209 338L210 339L209 338z"/>
<path style="fill:#2e90cf; stroke:none;" d="M210.667 338.333L211.333 338.667L210.667 338.333z"/>
<path style="fill:#afb5bd; stroke:none;" d="M232.667 338.333L233.333 338.667L232.667 338.333M243 338L244 339L243 338z"/>
<path style="fill:#155ea0; stroke:none;" d="M245.667 338.333L246.333 338.667L245.667 338.333z"/>
<path style="fill:#afb5bd; stroke:none;" d="M250 338L251 339L250 338M185 339L186 340L185 339z"/>
<path style="fill:#2e90cf; stroke:none;" d="M186.667 339.333L187.333 339.667L186.667 339.333z"/>
<path style="fill:#afb5bd; stroke:none;" d="M199 339L200 340L199 339M206.667 339.333L207.333 339.667L206.667 339.333z"/>
<path style="fill:#2e90cf; stroke:none;" d="M208.667 339.333L209.333 339.667L208.667 339.333z"/>
<path style="fill:#afb5bd; stroke:none;" d="M230 339L231 340L230 339M240 339L241 340L240 339z"/>
<path style="fill:#155ea0; stroke:none;" d="M243.667 339.333L244.333 339.667L243.667 339.333z"/>
<path style="fill:#afb5bd; stroke:none;" d="M247.667 339.333L248.333 339.667L247.667 339.333M182 340L183 341L182 340z"/>
<path style="fill:#2e90cf; stroke:none;" d="M183 340L183 341L186 341L183 340z"/>
<path style="fill:#afb5bd; stroke:none;" d="M196 340L197 341L196 340M204 340L205 341L204 340z"/>
<path style="fill:#2e90cf; stroke:none;" d="M205 340L205 341L208 341L205 340z"/>
<path style="fill:#afb5bd; stroke:none;" d="M227 340L228 341L227 340M238 340L239 341L238 340z"/>
<path style="fill:#155ea0; stroke:none;" d="M241.667 340.333L242.333 340.667L241.667 340.333z"/>
<path style="fill:#afb5bd; stroke:none;" d="M245 340L246 341L245 340M179 341L180 342L179 341z"/>
<path style="fill:#2e90cf; stroke:none;" d="M180 341L180 342L183 342L180 341M192 341L193 342L192 341z"/>
<path style="fill:#afb5bd; stroke:none;" d="M193.667 341.333L194.333 341.667L193.667 341.333M201 341L202 342L201 341z"/>
<path style="fill:#2e90cf; stroke:none;" d="M202 341L202 342L205 342L202 341M223 341L224 342L223 341z"/>
<path style="fill:#afb5bd; stroke:none;" d="M224.667 341.333L225.333 341.667L224.667 341.333M235 341L236 342L235 341z"/>
<path style="fill:#155ea0; stroke:none;" d="M239.667 341.333L240.333 341.667L239.667 341.333z"/>
<path style="fill:#afb5bd; stroke:none;" d="M242.667 341.333L243.333 341.667L242.667 341.333M176.667 342.333L177.333 342.667L176.667 342.333z"/>
<path style="fill:#2e90cf; stroke:none;" d="M178.667 342.333L179.333 342.667L178.667 342.333M189.667 342.333L190.333 342.667L189.667 342.333z"/>
<path style="fill:#afb5bd; stroke:none;" d="M191 342L192 343L191 342M198.667 342.333L199.333 342.667L198.667 342.333z"/>
<path style="fill:#2e90cf; stroke:none;" d="M200.667 342.333L201.333 342.667L200.667 342.333M220.667 342.333L221.333 342.667L220.667 342.333z"/>
<path style="fill:#afb5bd; stroke:none;" d="M222 342L223 343L222 342M233 342L234 343L233 342z"/>
<path style="fill:#155ea0; stroke:none;" d="M236 342L236 343L239 343L236 342z"/>
<path style="fill:#afb5bd; stroke:none;" d="M240 342L241 343L240 342M174 343L175 344L174 343z"/>
<path style="fill:#2e90cf; stroke:none;" d="M175.667 343.333L176.333 343.667L175.667 343.333M187 343L188 344L187 343z"/>
<path style="fill:#afb5bd; stroke:none;" d="M188.667 343.333L189.333 343.667L188.667 343.333M196 343L197 344L196 343z"/>
<path style="fill:#2e90cf; stroke:none;" d="M197 343L197 344L200 344L197 343M217.667 343.333L218.333 343.667L217.667 343.333z"/>
<path style="fill:#afb5bd; stroke:none;" d="M219 343L220 344L219 343M230 343L231 344L230 343z"/>
<path style="fill:#155ea0; stroke:none;" d="M234.667 343.333L235.333 343.667L234.667 343.333z"/>
<path style="fill:#afb5bd; stroke:none;" d="M238 343L239 344L238 343M171 344L172 345L171 344z"/>
<path style="fill:#2e90cf; stroke:none;" d="M172 344L172 345L175 345L172 344M184.667 344.333L185.333 344.667L184.667 344.333z"/>
<path style="fill:#afb5bd; stroke:none;" d="M186 344L187 345L186 344M193 344L194 345L193 344z"/>
<path style="fill:#2e90cf; stroke:none;" d="M194 344L194 345L197 345L194 344M215 344L216 345L215 344z"/>
<path style="fill:#afb5bd; stroke:none;" d="M216.667 344.333L217.333 344.667L216.667 344.333M228 344L229 345L228 344z"/>
<path style="fill:#155ea0; stroke:none;" d="M226 348L234 345L226 348z"/>
<path style="fill:#afb5bd; stroke:none;" d="M235.667 344.333L236.333 344.667L235.667 344.333M166 346L166 347L170 346L166 346z"/>
<path style="fill:#2e90cf; stroke:none;" d="M170.667 345.333L171.333 345.667L170.667 345.333M182 345L183 346L182 345z"/>
<path style="fill:#afb5bd; stroke:none;" d="M183.667 345.333L184.333 345.667L183.667 345.333M190.667 345.333L191.333 345.667L190.667 345.333z"/>
<path style="fill:#2e90cf; stroke:none;" d="M192.667 345.333L193.333 345.667L192.667 345.333M210 346L210 347L214 346L210 346z"/>
<path style="fill:#afb5bd; stroke:none;" d="M214.667 345.333L215.333 345.667L214.667 345.333M225 345L225 349L226 349L227 346L225 345z"/>
<path style="fill:#2e90cf; stroke:none;" d="M232 345L233 346L232 345z"/>
<path style="fill:#afb5bd; stroke:none;" d="M233.667 345.333L234.333 345.667L233.667 345.333z"/>
<path style="fill:#2e90cf; stroke:none;" d="M168 346L169 347L168 346M164 348L163 348C166.908 355.673 175.083 349.428 181 347C174.719 345.949 169.449 353.751 164 348z"/>
<path style="fill:#afb5bd; stroke:none;" d="M181.667 346.333L182.333 346.667L181.667 346.333M188 346L189 347L188 346z"/>
<path style="fill:#2e90cf; stroke:none;" d="M189.667 346.333L190.333 346.667L189.667 346.333z"/>
<path style="fill:#afb5bd; stroke:none;" d="M212 346L213 347L212 346z"/>
<path style="fill:#2e90cf; stroke:none;" d="M225.333 346.667L225.667 347.333L225.333 346.667M230 346L231 347L230 346z"/>
<path style="fill:#afb5bd; stroke:none;" d="M231.667 346.333L232.333 346.667L231.667 346.333M163.667 347.333L164.333 347.667L163.667 347.333z"/>
<path style="fill:#2e90cf; stroke:none;" d="M165.667 347.333L166.333 347.667L165.667 347.333z"/>
<path style="fill:#afb5bd; stroke:none;" d="M179 347L180 348L179 347M183 348L183 349L187 348L183 348z"/>
<path style="fill:#2e90cf; stroke:none;" d="M187.667 347.333L188.333 347.667L187.667 347.333M188 356L188 357L209 348L188 356z"/>
<path style="fill:#afb5bd; stroke:none;" d="M209.667 347.333L210.333 347.667L209.667 347.333z"/>
<path style="fill:#2e90cf; stroke:none;" d="M228 347L229 348L228 347z"/>
<path style="fill:#afb5bd; stroke:none;" d="M229.667 347.333L230.333 347.667L229.667 347.333M162.333 348.667L162.667 349.333L162.333 348.667M177 348L178 349L177 348z"/>
<path style="fill:#2e90cf; stroke:none;" d="M185 348L186 349L185 348z"/>
<path style="fill:#afb5bd; stroke:none;" d="M207 348L208 349L207 348z"/>
<path style="fill:#2e90cf; stroke:none;" d="M226 348L227 349L226 348z"/>
<path style="fill:#afb5bd; stroke:none;" d="M227 348L228 349L227 348M175 349L176 350L175 349M181 349L182 350L181 349z"/>
<path style="fill:#2e90cf; stroke:none;" d="M182 349L183 350L182 349z"/>
<path style="fill:#afb5bd; stroke:none;" d="M205 349L206 350L205 349M163 350L164 351L163 350M172.667 350.333L173.333 350.667L172.667 350.333M178.667 350.333L179.333 350.667L178.667 350.333z"/>
<path style="fill:#2e90cf; stroke:none;" d="M180 350L181 351L180 350z"/>
<path style="fill:#afb5bd; stroke:none;" d="M203 350L204 351L203 350M164 351L165 352L164 351M170 351L171 352L170 351M176 351L177 352L176 351z"/>
<path style="fill:#2e90cf; stroke:none;" d="M177.667 351.333L178.333 351.667L177.667 351.333z"/>
<path style="fill:#afb5bd; stroke:none;" d="M200.667 351.333L201.333 351.667L200.667 351.333M165 352L166 353L165 352M168 352L169 353L168 352M174 352L175 353L174 352z"/>
<path style="fill:#2e90cf; stroke:none;" d="M175 352L176 353L175 352z"/>
<path style="fill:#afb5bd; stroke:none;" d="M198 352L199 353L198 352M171.667 353.333L172.333 353.667L171.667 353.333z"/>
<path style="fill:#2e90cf; stroke:none;" d="M173 353L174 354L173 353z"/>
<path style="fill:#afb5bd; stroke:none;" d="M196 353L197 354L196 353M169 354L170 355L169 354z"/>
<path style="fill:#2e90cf; stroke:none;" d="M170.667 354.333L171.333 354.667L170.667 354.333z"/>
<path style="fill:#afb5bd; stroke:none;" d="M194 354L195 355L194 354M167 355L168 356L167 355z"/>
<path style="fill:#2e90cf; stroke:none;" d="M168.667 355.333L169.333 355.667L168.667 355.333z"/>
<path style="fill:#afb5bd; stroke:none;" d="M192 355L193 356L192 355M165 356L166 357L165 356z"/>
<path style="fill:#2e90cf; stroke:none;" d="M166.667 356.333L167.333 356.667L166.667 356.333z"/>
<path style="fill:#afb5bd; stroke:none;" d="M190 356L191 357L190 356M163 357L164 358L163 357z"/>
<path style="fill:#2e90cf; stroke:none;" d="M164.667 357.333L165.333 357.667L164.667 357.333M186 357L187 358L186 357z"/>
<path style="fill:#afb5bd; stroke:none;" d="M187.667 357.333L188.333 357.667L187.667 357.333M161 358L162 359L161 358z"/>
<path style="fill:#2e90cf; stroke:none;" d="M162.667 358.333L163.333 358.667L162.667 358.333M184 358L185 359L184 358z"/>
<path style="fill:#afb5bd; stroke:none;" d="M185.667 358.333L186.333 358.667L185.667 358.333M159 359L160 360L159 359z"/>
<path style="fill:#2e90cf; stroke:none;" d="M160.667 359.333L161.333 359.667L160.667 359.333M182 359L183 360L182 359z"/>
<path style="fill:#afb5bd; stroke:none;" d="M183.667 359.333L184.333 359.667L183.667 359.333M157 360L158 361L157 360z"/>
<path style="fill:#2e90cf; stroke:none;" d="M158.667 360.333L159.333 360.667L158.667 360.333M180 360L181 361L180 360z"/>
<path style="fill:#afb5bd; stroke:none;" d="M181.667 360.333L182.333 360.667L181.667 360.333M155 361L156 362L155 361z"/>
<path style="fill:#2e90cf; stroke:none;" d="M156.667 361.333L157.333 361.667L156.667 361.333M178 361L167 367L167 368L179 362L178 361z"/>
<path style="fill:#afb5bd; stroke:none;" d="M179.667 361.333L180.333 361.667L179.667 361.333M153 362L154 363L153 362z"/>
<path style="fill:#2e90cf; stroke:none;" d="M154.667 362.333L155.333 362.667L154.667 362.333z"/>
<path style="fill:#afb5bd; stroke:none;" d="M178 362L179 363L178 362M151 363L148 365L148 366L152 364L151 363z"/>
<path style="fill:#2e90cf; stroke:none;" d="M152.667 363.333L153.333 363.667L152.667 363.333z"/>
<path style="fill:#afb5bd; stroke:none;" d="M176 363L177 364L176 363z"/>
<path style="fill:#2e90cf; stroke:none;" d="M151 364L152 365L151 364z"/>
<path style="fill:#afb5bd; stroke:none;" d="M174 364L175 365L174 364z"/>
<path style="fill:#2e90cf; stroke:none;" d="M149 365L150 366L149 365z"/>
<path style="fill:#afb5bd; stroke:none;" d="M172 365L173 366L172 365M146 366L147 367L146 366z"/>
<path style="fill:#2e90cf; stroke:none;" d="M147 366L148 367L147 366z"/>
<path style="fill:#afb5bd; stroke:none;" d="M170 366L171 367L170 366M144 367L145 368L144 367z"/>
<path style="fill:#2e90cf; stroke:none;" d="M145 367L146 368L145 367z"/>
<path style="fill:#afb5bd; stroke:none;" d="M168 367L169 368L168 367M142 368L143 369L142 368z"/>
<path style="fill:#2e90cf; stroke:none;" d="M143.667 368.333L144.333 368.667L143.667 368.333M165 368L164 370L165 368z"/>
<path style="fill:#afb5bd; stroke:none;" d="M166 368L167 369L166 368M140 369L139 371L140 369z"/>
<path style="fill:#2e90cf; stroke:none;" d="M141.667 369.333L142.333 369.667L141.667 369.333z"/>
<path style="fill:#afb5bd; stroke:none;" d="M165 369L166 370L165 369z"/>
<path style="fill:#2e90cf; stroke:none;" d="M140 370L141 371L140 370M162 370L161 372L162 370z"/>
<path style="fill:#afb5bd; stroke:none;" d="M163 370L164 371L163 370M137 371L138 372L137 371z"/>
<path style="fill:#2e90cf; stroke:none;" d="M138 371L139 372L138 371z"/>
<path style="fill:#afb5bd; stroke:none;" d="M162 371L163 372L162 371M135 372L136 373L135 372z"/>
<path style="fill:#2e90cf; stroke:none;" d="M136.667 372.333L137.333 372.667L136.667 372.333M159 372L160 373L159 372z"/>
<path style="fill:#afb5bd; stroke:none;" d="M160 372L161 373L160 372M133 373L132 375L133 373z"/>
<path style="fill:#2e90cf; stroke:none;" d="M134.667 373.333L135.333 373.667L134.667 373.333M157 373L156 375L157 373z"/>
<path style="fill:#afb5bd; stroke:none;" d="M158 373L159 374L158 373z"/>
<path style="fill:#2e90cf; stroke:none;" d="M133 374L134 375L133 374z"/>
<path style="fill:#afb5bd; stroke:none;" d="M157 374L158 375L157 374M130 375L127 377L127 378L131 376L130 375z"/>
<path style="fill:#2e90cf; stroke:none;" d="M131 375L132 376L131 375M154 375L153 377L154 375z"/>
<path style="fill:#afb5bd; stroke:none;" d="M155 375L156 376L155 375z"/>
<path style="fill:#2e90cf; stroke:none;" d="M130 376L131 377L130 376z"/>
<path style="fill:#afb5bd; stroke:none;" d="M154 376L155 377L154 376z"/>
<path style="fill:#2e90cf; stroke:none;" d="M128 377L129 378L128 377M151 377L150 379L151 377z"/>
<path style="fill:#afb5bd; stroke:none;" d="M152 377L153 378L152 377z"/>
<path style="fill:#2e90cf; stroke:none;" d="M126.667 378.333L127.333 378.667L126.667 378.333z"/>
<path style="fill:#afb5bd; stroke:none;" d="M151 378L152 379L151 378M124 379L123 381L124 379z"/>
<path style="fill:#2e90cf; stroke:none;" d="M125 379L126 380L125 379M147 381L150 380L147 381M124 380L125 381L124 380z"/>
<path style="fill:#afb5bd; stroke:none;" d="M148 380L149 381L148 380M121 381L120 383L121 381z"/>
<path style="fill:#2e90cf; stroke:none;" d="M122 381L123 382L122 381M143 384L147 382L143 384M121 382L122 383L121 382z"/>
<path style="fill:#afb5bd; stroke:none;" d="M145 382L146 383L145 382z"/>
<path style="fill:#2e90cf; stroke:none;" d="M119.667 383.333L120.333 383.667L119.667 383.333z"/>
<path style="fill:#afb5bd; stroke:none;" d="M144 383L145 384L144 383M117 384L116 386L117 384z"/>
<path style="fill:#2e90cf; stroke:none;" d="M118 384L119 385L118 384M141 384L140 386L141 384z"/>
<path style="fill:#afb5bd; stroke:none;" d="M142 384L143 385L142 384z"/>
<path style="fill:#2e90cf; stroke:none;" d="M117 385L118 386L117 385z"/>
<path style="fill:#afb5bd; stroke:none;" d="M141 385L142 386L141 385M114 386L112 389L114 386z"/>
<path style="fill:#2e90cf; stroke:none;" d="M115.667 386.333L116.333 386.667L115.667 386.333M136 389L140 387L136 389M114 387L115 388L114 387z"/>
<path style="fill:#afb5bd; stroke:none;" d="M138 387L139 388L138 387z"/>
<path style="fill:#2e90cf; stroke:none;" d="M113 388L114 389L113 388z"/>
<path style="fill:#afb5bd; stroke:none;" d="M137 388L138 389L137 388z"/>
<path style="fill:#2e90cf; stroke:none;" d="M111 389L112 390L111 389M130 394L136 390L130 394z"/>
<path style="fill:#afb5bd; stroke:none;" d="M109 390L106 394L109 390z"/>
<path style="fill:#2e90cf; stroke:none;" d="M110 390L111 391L110 390z"/>
<path style="fill:#afb5bd; stroke:none;" d="M134 390L135 391L134 390z"/>
<path style="fill:#2e90cf; stroke:none;" d="M109 391L110 392L109 391z"/>
<path style="fill:#afb5bd; stroke:none;" d="M133 391L134 392L133 391z"/>
<path style="fill:#2e90cf; stroke:none;" d="M108 392L109 393L108 392z"/>
<path style="fill:#afb5bd; stroke:none;" d="M132 392L133 393L132 392z"/>
<path style="fill:#2e90cf; stroke:none;" d="M107 393L108 394L107 393z"/>
<path style="fill:#afb5bd; stroke:none;" d="M131 393L132 394L131 393M105 394L106 395L105 394z"/>
<path style="fill:#2e90cf; stroke:none;" d="M115 408L130 395C124.299 394.879 118.072 403.638 115 408M104 395L105 396L104 395z"/>
<path style="fill:#afb5bd; stroke:none;" d="M128 395L129 396L128 395z"/>
<path style="fill:#2e90cf; stroke:none;" d="M103 396L104 397L103 396z"/>
<path style="fill:#afb5bd; stroke:none;" d="M127 396L128 397L127 396z"/>
<path style="fill:#2e90cf; stroke:none;" d="M102 397L103 398L102 397z"/>
<path style="fill:#afb5bd; stroke:none;" d="M126 397L127 398L126 397z"/>
<path style="fill:#2e90cf; stroke:none;" d="M101 398L102 399L101 398z"/>
<path style="fill:#afb5bd; stroke:none;" d="M125 398L126 399L125 398z"/>
<path style="fill:#2e90cf; stroke:none;" d="M100 399L101 400L100 399z"/>
<path style="fill:#afb5bd; stroke:none;" d="M124 399L125 400L124 399z"/>
<path style="fill:#2e90cf; stroke:none;" d="M99 400L100 401L99 400z"/>
<path style="fill:#afb5bd; stroke:none;" d="M123 400L124 401L123 400z"/>
<path style="fill:#2e90cf; stroke:none;" d="M98 401L99 402L98 401z"/>
<path style="fill:#afb5bd; stroke:none;" d="M122 401L123 402L122 401z"/>
<path style="fill:#2e90cf; stroke:none;" d="M97 402L98 403L97 402z"/>
<path style="fill:#afb5bd; stroke:none;" d="M121 402L122 403L121 402z"/>
<path style="fill:#2e90cf; stroke:none;" d="M96 403L97 404L96 403z"/>
<path style="fill:#afb5bd; stroke:none;" d="M120 403L121 404L120 403z"/>
<path style="fill:#2e90cf; stroke:none;" d="M95 404L96 405L95 404z"/>
<path style="fill:#afb5bd; stroke:none;" d="M119 404L120 405L119 404M94 405L95 406L94 405M118 405L119 406L118 405M93 406L91 409L93 406M117 406L118 407L117 406z"/>
<path style="fill:#2e90cf; stroke:none;" d="M93 407L94 408L93 407z"/>
<path style="fill:#afb5bd; stroke:none;" d="M116 407L117 408L116 407z"/>
<path style="fill:#2e90cf; stroke:none;" d="M92 408L93 409L92 408z"/>
<path style="fill:#afb5bd; stroke:none;" d="M115 408L116 409L115 408z"/>
<path style="fill:#2e90cf; stroke:none;" d="M91 409L92 410L91 409M114 409L115 410L114 409M90 410L81 425L82 425L90 410M113 410L111 413L113 410z"/>
<path style="fill:#afb5bd; stroke:none;" d="M89 411L90 412L89 411M113 411L114 412L113 411M88 412L89 413L88 412M112 412L113 413L112 412M87 413L88 414L87 413M111 413L112 414L111 413M129 413L129 484L130 484L130 435L129 413z"/>
<path style="fill:#2e90cf; stroke:none;" d="M130 413L131 414L130 413z"/>
<path style="fill:#155ea0; stroke:none;" d="M151 484L150 441L171.319 473L179.21 483.972L200 485L200 436C200 430.357 201.916 420.438 199.397 415.318C197.489 411.44 181.511 411.44 179.603 415.318C175.801 423.045 179 439.386 179 448C172.083 438.478 166.964 427.727 160.304 418.019C156.742 412.827 135.657 408.758 131.028 414.603C127.316 419.291 130 434.154 130 440L130 471C130 474.328 128.825 480.615 131.028 483.397C134.036 487.195 146.961 485.194 151 484z"/>
<path style="fill:#afb5bd; stroke:none;" d="M157 413L158 414L157 413z"/>
<path style="fill:#2e90cf; stroke:none;" d="M179 413L180 414L179 413z"/>
<path style="fill:#afb5bd; stroke:none;" d="M199 413L200 414L199 413M211 413L212 414L211 413z"/>
<path style="fill:#155ea0; stroke:none;" d="M233 441C233.172 426.406 260.154 432 271 432C271 427.866 272.95 416.842 269.397 414.028C266.615 411.825 260.328 413 257 413L225 413C221.684 413 214.368 411.649 212.028 414.603C209.577 417.698 211 425.269 211 429L211 468C211 471.786 209.284 481.343 212.603 483.972C215.385 486.175 221.672 485 225 485L257 485C260.471 485 268.515 486.507 270.397 482.682C271.346 480.752 270.997 478.079 271 476C271.023 461.516 256.195 466.001 245 466C241.401 466 231.406 466.758 233.662 460.144C234.929 456.43 239.916 457.006 243 457C249.884 456.986 262.467 459.455 268.682 456.397C272.311 454.611 272.311 443.389 268.682 441.603C260.31 437.484 242.346 441 233 441z"/>
<path style="fill:#2e90cf; stroke:none;" d="M270 413L271 414L270 413z"/>
<path style="fill:#afb5bd; stroke:none;" d="M289 413L289 414L341 414L324 413L289 413z"/>
<path style="fill:#2e90cf; stroke:none;" d="M341 413L342 432L343 432L341 413z"/>
<path style="fill:#afb5bd; stroke:none;" d="M342 413L343 414L342 413M363 413L363 414L416 414L399 413L363 413M442 413L442 414L446 414L442 413z"/>
<path style="fill:#2e90cf; stroke:none;" d="M446 413L446 414L450 414L446 413z"/>
<path style="fill:#afb5bd; stroke:none;" d="M450 413L450 414L495 414C483.299 409.09 462.742 413 450 413z"/>
<path style="fill:#2e90cf; stroke:none;" d="M495 413L496 431L464 431L453.028 432.742L452 450L453.603 465.821L466 467L496 467L496 485L497 485L497 466L467 466C463.611 466 458.287 466.954 455.318 464.972C450.972 462.072 450.972 435.928 455.318 433.028C458.287 431.046 463.611 432 467 432L497 432L495 413z"/>
<path style="fill:#afb5bd; stroke:none;" d="M496 413L497 414L496 413z"/>
<path style="fill:#2e90cf; stroke:none;" d="M110 414L111 415L110 414z"/>
<path style="fill:#afb5bd; stroke:none;" d="M158 414L159 415L158 414M200 414L200 485L201 485L201 436L200 414M271 414L271 432L272 432L271 414M285 416L288 415L285 416z"/>
<path style="fill:#2e90cf; stroke:none;" d="M288 414L288 415L292 415L288 414z"/>
<path style="fill:#155ea0; stroke:none;" d="M326 457L323.707 465.972L311 467L280 467L280 485C295.33 485 310.671 485.178 326 484.996C331.893 484.926 340.312 484.737 344.347 479.786C348.211 475.045 347 467.687 347 462C347 456.861 347.945 450.429 344.486 446.133C335.017 434.375 313.314 448.329 302.318 440.972C297.399 437.681 301.659 432.444 306.005 432.059C317.812 431.011 330.143 432 342 432L342 414L303 414C297.306 414 290.009 413.323 285.059 416.738C278.465 421.288 277.82 450.643 285.059 454.697C295.517 460.553 314.36 457 326 457z"/>
<path style="fill:#afb5bd; stroke:none;" d="M343 414L343 432L344 432L343 414M361 414L362 415L361 414z"/>
<path style="fill:#2e90cf; stroke:none;" d="M362.667 414.333L363.333 414.667L362.667 414.333z"/>
<path style="fill:#155ea0; stroke:none;" d="M354 484C358.147 485.226 371.903 487.272 374.972 483.397C379.029 478.275 376 461.449 376 455C381.816 455 395.987 452.426 400.397 456.742C405.02 461.268 402 478.781 402 485L423 485L423 440C423 433.694 424.271 425.685 420.91 420.019C418.078 415.245 413.182 414.144 408 414.015C395.866 413.712 364.123 408.534 356.742 420.019C353.51 425.048 355 433.279 355 439C355 453.34 357.327 470.025 354 484z"/>
<path style="fill:#2e90cf; stroke:none;" d="M413 414L413 415L417 415L413 414z"/>
<path style="fill:#afb5bd; stroke:none;" d="M438 416L441 415L438 416z"/>
<path style="fill:#2e90cf; stroke:none;" d="M441 414L441 415L444 415L441 414z"/>
<path style="fill:#155ea0; stroke:none;" d="M496 485L496 467L467 467C463.28 467 457.58 467.998 454.318 465.821C449.904 462.876 449.904 435.124 454.318 432.179C457.58 430.002 463.28 431 467 431L496 431L496 414L457 414C450.727 414 443.516 413.147 438.043 416.879C432.639 420.564 432.01 425.981 432 432C431.978 444.982 430.409 459.143 432.189 472C432.785 476.302 435.309 479.747 439.005 481.991C452.67 490.288 480.469 485 496 485z"/>
<path style="fill:#afb5bd; stroke:none;" d="M86 415L87 416L86 415z"/>
<path style="fill:#2e90cf; stroke:none;" d="M109 415L108 417L109 415M158 415L159 416L158 415M286 415L287 416L286 415z"/>
<path style="fill:#afb5bd; stroke:none;" d="M359 415L354 423L355 423L359 415z"/>
<path style="fill:#2e90cf; stroke:none;" d="M360 415L361 416L360 415M417 415L420 418L417 415z"/>
<path style="fill:#afb5bd; stroke:none;" d="M418 415L419 416L418 415z"/>
<path style="fill:#2e90cf; stroke:none;" d="M439 415L440 416L439 415z"/>
<path style="fill:#afb5bd; stroke:none;" d="M85 416L86 417L85 416M109 416L110 417L109 416M159 416L160 417L159 416M283 416L281 419L283 416z"/>
<path style="fill:#2e90cf; stroke:none;" d="M284 416L285 417L284 416M359 416L360 417L359 416z"/>
<path style="fill:#afb5bd; stroke:none;" d="M419 416L420 417L419 416z"/>
<path style="fill:#2e90cf; stroke:none;" d="M437.667 416.333L438.333 416.667L437.667 416.333z"/>
<path style="fill:#afb5bd; stroke:none;" d="M108 417L109 418L108 417M160 417L161 418L160 417z"/>
<path style="fill:#2e90cf; stroke:none;" d="M283 417L284 418L283 417M358 417L359 418L358 417z"/>
<path style="fill:#afb5bd; stroke:none;" d="M435 417L434 419L435 417z"/>
<path style="fill:#2e90cf; stroke:none;" d="M436 417L437 418L436 417z"/>
<path style="fill:#afb5bd; stroke:none;" d="M84 418L85 419L84 418z"/>
<path style="fill:#2e90cf; stroke:none;" d="M107 418L106 421L107 421L107 418M160 418L161 419L160 418M282 418L283 419L282 418M357 418L358 419L357 418M420 418L421 419L420 418M435 418L436 419L435 418z"/>
<path style="fill:#afb5bd; stroke:none;" d="M83 419L84 420L83 419M107 419L108 420L107 419M161 419L162 420L161 419z"/>
<path style="fill:#2e90cf; stroke:none;" d="M281 419L282 420L281 419M356 419L357 420L356 419z"/>
<path style="fill:#afb5bd; stroke:none;" d="M421 419L423 421L421 419z"/>
<path style="fill:#2e90cf; stroke:none;" d="M434 419L435 420L434 419z"/>
<path style="fill:#afb5bd; stroke:none;" d="M280 420L281 421L280 420z"/>
<path style="fill:#2e90cf; stroke:none;" d="M421 420L422 421L421 420z"/>
<path style="fill:#afb5bd; stroke:none;" d="M433 420L432 422L433 420M82 421L83 422L82 421z"/>
<path style="fill:#2e90cf; stroke:none;" d="M105 421L102 427L103 427L105 421z"/>
<path style="fill:#afb5bd; stroke:none;" d="M162 421L163 422L162 421z"/>
<path style="fill:#2e90cf; stroke:none;" d="M280 421L280 451L281 451L280 421M355 421L356 422L355 421M422 421L422 424L423 424L422 421M433 421L434 422L433 421z"/>
<path style="fill:#afb5bd; stroke:none;" d="M105 422L106 423L105 422M163 422L164 423L163 422M279 422L279 450L280 450L279 422M423 422L423 426L424 426L423 422z"/>
<path style="fill:#2e90cf; stroke:none;" d="M432.333 422.667L432.667 423.333L432.333 422.667z"/>
<path style="fill:#afb5bd; stroke:none;" d="M81 423L82 424L81 423z"/>
<path style="fill:#2e90cf; stroke:none;" d="M163 423L164 424L163 423M354 423L354 483L355 483L355 442L354 423z"/>
<path style="fill:#afb5bd; stroke:none;" d="M431.333 423.667L431.667 424.333L431.333 423.667M104 424L105 425L104 424M164 424L165 425L164 424M80 425L81 426L80 425M353 425L353 466C353 470.901 351.406 479.217 353.603 483.682C355.478 487.493 373.434 487.601 375.972 484.397C379.918 479.414 377 463.262 377 457L401 457L401 456L376 456L376 485L354 485L354 444L353 425z"/>
<path style="fill:#2e90cf; stroke:none;" d="M431 425L431 473L432 473C432 459.474 436.209 437.414 431 425M80 426L81 427L80 426z"/>
<path style="fill:#afb5bd; stroke:none;" d="M103 426L104 427L103 426M165 426L166 427L165 426z"/>
<path style="fill:#2e90cf; stroke:none;" d="M423 426L423 485L424 485L424 445L423 426z"/>
<path style="fill:#afb5bd; stroke:none;" d="M79 427L80 428L79 427M102 427L100 433L101 433L102 427M166 427L167 428L166 427M430 427L430 469L431 469C431 457.043 434.611 437.988 430 427z"/>
<path style="fill:#2e90cf; stroke:none;" d="M79 428L80 429L79 428M101 428L102 429L101 428z"/>
<path style="fill:#afb5bd; stroke:none;" d="M78 429L79 430L78 429M167 429L168 430L167 429z"/>
<path style="fill:#2e90cf; stroke:none;" d="M78 430L79 431L78 430M100 430L101 431L100 430z"/>
<path style="fill:#afb5bd; stroke:none;" d="M168.333 430.667L168.667 431.333L168.333 430.667M77 431L78 432L77 431z"/>
<path style="fill:#2e90cf; stroke:none;" d="M77.3333 432.667L77.6667 433.333L77.3333 432.667M99.3333 432.667L99.6667 433.333L99.3333 432.667z"/>
<path style="fill:#afb5bd; stroke:none;" d="M169 432L170 433L169 432M234 432L234 433L271 433C261.202 428.889 244.649 432 234 432z"/>
<path style="fill:#2e90cf; stroke:none;" d="M301 432C296.33 447.838 327.93 442 338 442L338 441C325.639 441 303.324 446.426 301 432z"/>
<path style="fill:#afb5bd; stroke:none;" d="M302 432L302 433L343 433C332.25 428.489 313.696 432 302 432z"/>
<path style="fill:#2e90cf; stroke:none;" d="M376 432L377 433L376 432z"/>
<path style="fill:#afb5bd; stroke:none;" d="M400 442L400 441L377 441L377 433L400 433C395.109 430.948 384.296 430.789 379.148 432.318C375.817 433.307 374.82 438.766 377.603 440.972C381.881 444.362 394.68 442 400 442z"/>
<path style="fill:#2e90cf; stroke:none;" d="M400 432L400 442C402.802 439.552 402.802 434.448 400 432z"/>
<path style="fill:#afb5bd; stroke:none;" d="M454 432L454 433L497 433C485.774 428.29 466.219 432 454 432M76.3333 433.667L76.6667 434.333L76.3333 433.667M233 433C233.159 446.382 260.777 441 271 441L271 440L234 440L233 433M301 433L301 440L302 440L301 433z"/>
<path style="fill:#fefefe; stroke:none;" d="M377 433L377 441L401 441L401 433L377 433z"/>
<path style="fill:#afb5bd; stroke:none;" d="M453 433L453 465L454 465L453 433M99.3333 434.667L99.6667 435.333L99.3333 434.667M170 434L171 435L170 434z"/>
<path style="fill:#2e90cf; stroke:none;" d="M76.3333 435.667L76.6667 436.333L76.3333 435.667M98.3333 435.667L98.6667 436.333L98.3333 435.667z"/>
<path style="fill:#afb5bd; stroke:none;" d="M171 435L172 436L171 435M75.3333 436.667L75.6667 437.333L75.3333 436.667z"/>
<path style="fill:#2e90cf; stroke:none;" d="M171 436L172 437L171 436z"/>
<path style="fill:#afb5bd; stroke:none;" d="M98 437L99 438L98 437M172 437L173 438L172 437z"/>
<path style="fill:#2e90cf; stroke:none;" d="M75.3333 438.667L75.6667 439.333L75.3333 438.667M97 438L98 439L97 438z"/>
<path style="fill:#afb5bd; stroke:none;" d="M74.3333 439.667L74.6667 440.333L74.3333 439.667M97.3333 439.667L97.6667 440.333L97.3333 439.667M173 439L174 440L173 439M174 440L175 441L174 440z"/>
<path style="fill:#2e90cf; stroke:none;" d="M233 440L234 441L233 440z"/>
<path style="fill:#afb5bd; stroke:none;" d="M302 440L302 441L335 441L302 440z"/>
<path style="fill:#2e90cf; stroke:none;" d="M74 441L74 444L75 444L74 441M96 441L97 442L96 441M150 441L150 483L151 483C151 471.043 154.611 451.988 150 441z"/>
<path style="fill:#afb5bd; stroke:none;" d="M151 441L152 442L151 441z"/>
<path style="fill:#2e90cf; stroke:none;" d="M174 441L175 442L174 441M270 441L271 442L270 441z"/>
<path style="fill:#afb5bd; stroke:none;" d="M338 441L338 442L341 442L338 441z"/>
<path style="fill:#2e90cf; stroke:none;" d="M376 441L377 442L376 441z"/>
<path style="fill:#afb5bd; stroke:none;" d="M73 442L73 445L74 445L73 442M96.3333 442.667L96.6667 443.333L96.3333 442.667M152 442L153 443L152 442M175 442L176 443L175 442z"/>
<path style="fill:#2e90cf; stroke:none;" d="M339 442L339 443L346 447L339 442z"/>
<path style="fill:#afb5bd; stroke:none;" d="M342 442L343 443L342 442z"/>
<path style="fill:#2e90cf; stroke:none;" d="M377 442L377 443L399 443L377 442z"/>
<path style="fill:#afb5bd; stroke:none;" d="M343 443L344 444L343 443z"/>
<path style="fill:#2e90cf; stroke:none;" d="M95.3333 444.667L95.6667 445.333L95.3333 444.667z"/>
<path style="fill:#afb5bd; stroke:none;" d="M153 444L154 445L153 444M176 444L177 445L176 444M344 444L345 445L344 444z"/>
<path style="fill:#2e90cf; stroke:none;" d="M73 445L73 450L74 450L73 445M154 445L155 446L154 445z"/>
<path style="fill:#afb5bd; stroke:none;" d="M345 445L346 446L345 445M95.3333 446.667L95.6667 447.333L95.3333 446.667M154 446L155 447L154 446z"/>
<path style="fill:#2e90cf; stroke:none;" d="M177 446L178 447L177 446z"/>
<path style="fill:#afb5bd; stroke:none;" d="M72 447L71 454L72 454L72 447z"/>
<path style="fill:#2e90cf; stroke:none;" d="M94 447L94 450L95 450L94 447z"/>
<path style="fill:#afb5bd; stroke:none;" d="M155 447L156 448L155 447M178 447L179 448L178 447M346 447L347 448L346 447z"/>
<path style="fill:#2e90cf; stroke:none;" d="M346.333 448.667L346.667 449.333L346.333 448.667z"/>
<path style="fill:#afb5bd; stroke:none;" d="M156 449L157 450L156 449M94 450L94 454L95 454L94 450M157.333 450.667L157.667 451.333L157.333 450.667M347 450L347 456L348 456L347 450z"/>
<path style="fill:#2e90cf; stroke:none;" d="M72 451L72 468L73 468L72 451M93 451L95 482L96 482L93 451z"/>
<path style="fill:#afb5bd; stroke:none;" d="M280 451L281 452L280 451M158 452L159 453L158 452z"/>
<path style="fill:#2e90cf; stroke:none;" d="M281 452L284 455L281 452M159 453L160 454L159 453z"/>
<path style="fill:#afb5bd; stroke:none;" d="M281 453L282 454L281 453M159 454L160 455L159 454M282 454L283 455L282 454M160 455L161 456L160 455M284 455L285 456L284 455z"/>
<path style="fill:#2e90cf; stroke:none;" d="M285.667 455.333L286.333 455.667L285.667 455.333M376 455L376 456L400 456L376 455M270 456L271 457L270 456z"/>
<path style="fill:#afb5bd; stroke:none;" d="M286.667 456.333L287.333 456.667L286.667 456.333z"/>
<path style="fill:#2e90cf; stroke:none;" d="M288 456L288 457L291 457L288 456M347 456L347 472L348 472L347 456M401 456L401 485L402 485L401 456z"/>
<path style="fill:#afb5bd; stroke:none;" d="M161 457L162 458L161 457M234 457L234 458L271 458C261.202 453.889 244.649 457 234 457M289 457L289 458L324 458L289 457z"/>
<path style="fill:#2e90cf; stroke:none;" d="M324.667 457.333L325.333 457.667L324.667 457.333M162 458L163 459L162 458z"/>
<path style="fill:#afb5bd; stroke:none;" d="M233 458L233 465L234 465L233 458M325 458L325 465L292 465L279.603 466.028L278 474L279 474L279 466L316 466C321.74 465.997 328.065 465.384 325 458M162 459L163 460L162 459M163 460L164 461L163 460z"/>
<path style="fill:#2e90cf; stroke:none;" d="M326.333 461.667L326.667 462.333L326.333 461.667z"/>
<path style="fill:#afb5bd; stroke:none;" d="M164 462L165 463L164 462M165 463L166 464L165 463M71 465L72 474L73 474L71 465M166 465L167 466L166 465M234 465L234 466L271 466C261.202 461.889 244.649 465 234 465z"/>
<path style="fill:#2e90cf; stroke:none;" d="M325 465L326 466L325 465z"/>
<path style="fill:#afb5bd; stroke:none;" d="M454 465L454 466L497 466C485.774 461.29 466.219 465 454 465z"/>
<path style="fill:#2e90cf; stroke:none;" d="M167 466L168 467L167 466M270 466L271 467L270 466M279 466L279 485L280 485L280 467L325 467C313.061 461.99 292.003 466 279 466z"/>
<path style="fill:#afb5bd; stroke:none;" d="M167 467L168 468L167 467M168 468L169 469L168 468z"/>
<path style="fill:#2e90cf; stroke:none;" d="M73 470L73 476L74 476L73 470z"/>
<path style="fill:#afb5bd; stroke:none;" d="M169 470L170 471L169 470M94 471L94 474L95 474L94 471M170.333 471.667L170.667 472.333L170.333 471.667M347 472L347 477L348 477L347 472M171 473L172 474L171 473M431 473L431 476L432 476L431 473z"/>
<path style="fill:#2e90cf; stroke:none;" d="M172 474L173 475L172 474M432 474C433.453 479.172 436.97 482.29 442 484L442 483L432 474z"/>
<path style="fill:#afb5bd; stroke:none;" d="M172 475L173 476L172 475M73 476L73 479L74 479L73 476M173 476L174 477L173 476z"/>
<path style="fill:#2e90cf; stroke:none;" d="M346 476L345 479L346 476M74 477L74 480L75 480L74 477z"/>
<path style="fill:#afb5bd; stroke:none;" d="M95.3333 477.667L95.6667 478.333L95.3333 477.667M432 477L433 478L432 477M174 478L175 479L174 478M346 478L347 479L346 478M433 478L434 479L433 478z"/>
<path style="fill:#2e90cf; stroke:none;" d="M175 479L176 480L175 479z"/>
<path style="fill:#afb5bd; stroke:none;" d="M345 479L346 480L345 479M434 479L435 480L434 479M74 480L74 483L75 483L74 480M175 480L176 481L175 480z"/>
<path style="fill:#2e90cf; stroke:none;" d="M344 480L345 481L344 480z"/>
<path style="fill:#afb5bd; stroke:none;" d="M435 480L436 481L435 480M96.3333 481.667L96.6667 482.333L96.3333 481.667M176 481L177 482L176 481z"/>
<path style="fill:#2e90cf; stroke:none;" d="M343 481L344 482L343 481z"/>
<path style="fill:#afb5bd; stroke:none;" d="M436 481L437 482L436 481z"/>
<path style="fill:#2e90cf; stroke:none;" d="M75.3333 482.667L75.6667 483.333L75.3333 482.667M341 482L339 483L339 484L341 482z"/>
<path style="fill:#afb5bd; stroke:none;" d="M342 482L343 483L342 482M437 482L438 483L437 482z"/>
<path style="fill:#2e90cf; stroke:none;" d="M96.3333 483.667L96.6667 484.333L96.3333 483.667z"/>
<path style="fill:#afb5bd; stroke:none;" d="M177 483L178 484L177 483M341 483L342 484L341 483M439 483L440 484L439 483M75.3333 484.667L75.6667 485.333L75.3333 484.667z"/>
<path style="fill:#2e90cf; stroke:none;" d="M130 484L131 485L130 484M150 484L151 485L150 484z"/>
<path style="fill:#afb5bd; stroke:none;" d="M178 484L179 485L178 484z"/>
<path style="fill:#2e90cf; stroke:none;" d="M211 484L212 485L211 484M270 484L271 485L270 484M332 484L332 485L338 485L332 484z"/>
<path style="fill:#afb5bd; stroke:none;" d="M338.667 484.333L339.333 484.667L338.667 484.333z"/>
<path style="fill:#2e90cf; stroke:none;" d="M354 484L355 485L354 484M375 484L376 485L375 484z"/>
<path style="fill:#afb5bd; stroke:none;" d="M441 484L441 485L444 485L441 484z"/>
<path style="fill:#2e90cf; stroke:none;" d="M444 484L444 485L448 485L444 484M76.3333 485.667L76.6667 486.333L76.3333 485.667z"/>
<path style="fill:#afb5bd; stroke:none;" d="M97 485L98 486L97 485M130 485L130 486L151 486L130 485M179 485L179 486L200 486L179 485M211 485L211 486L271 486L252 485L211 485M279 485L279 486L336 486L318 485L279 485M401 485L401 486L424 486L401 485M445 485L445 486L497 486L480 485L445 485z"/>
<path style="fill:#2e90cf; stroke:none;" d="M97.3333 486.667L97.6667 487.333L97.3333 486.667z"/>
<path style="fill:#afb5bd; stroke:none;" d="M76.3333 487.667L76.6667 488.333L76.3333 487.667M98 487L99 491L100 491L98 487z"/>
<path style="fill:#2e90cf; stroke:none;" d="M77.3333 488.667L77.6667 489.333L77.3333 488.667M98 489L99 490L98 489z"/>
<path style="fill:#afb5bd; stroke:none;" d="M77 490L78 491L77 490z"/>
<path style="fill:#2e90cf; stroke:none;" d="M78 491L79 492L78 491M99 491L100 492L99 491z"/>
<path style="fill:#afb5bd; stroke:none;" d="M78 492L79 493L78 492M100 492L102 496L103 496L100 492z"/>
<path style="fill:#2e90cf; stroke:none;" d="M79 493L82 500L83 500L79 493M100 493L101 494L100 493z"/>
<path style="fill:#afb5bd; stroke:none;" d="M79 494L80 495L79 494z"/>
<path style="fill:#2e90cf; stroke:none;" d="M101 495L102 496L101 495z"/>
<path style="fill:#afb5bd; stroke:none;" d="M80 496L81 497L80 496z"/>
<path style="fill:#2e90cf; stroke:none;" d="M102 496L107 503L102 496z"/>
<path style="fill:#afb5bd; stroke:none;" d="M103 497L104 498L103 497M81 498L82 499L81 498M104 498L105 499L104 498z"/>
<path style="fill:#2e90cf; stroke:none;" d="M83 500L84 503L85 503L83 500z"/>
<path style="fill:#afb5bd; stroke:none;" d="M105 500L106 501L105 500M83 501L84 502L83 501M106 501L107 502L106 501z"/>
<path style="fill:#2e90cf; stroke:none;" d="M85 503L88 506L85 503M107 503L108 504L107 503z"/>
<path style="fill:#afb5bd; stroke:none;" d="M85 504L86 505L85 504z"/>
<path style="fill:#2e90cf; stroke:none;" d="M108 504L109 505L108 504z"/>
<path style="fill:#afb5bd; stroke:none;" d="M86 505L87 506L86 505M109 505L110 506L109 505M87 506L88 507L87 506M110 506L111 507L110 506z"/>
<path style="fill:#2e90cf; stroke:none;" d="M88 507L89 508L88 507z"/>
<path style="fill:#afb5bd; stroke:none;" d="M111 507L113 509L111 507z"/>
<path style="fill:#2e90cf; stroke:none;" d="M89 508L95 514L89 508M111 508L112 509L111 508z"/>
<path style="fill:#afb5bd; stroke:none;" d="M89 509L90 510L89 509z"/>
<path style="fill:#2e90cf; stroke:none;" d="M112.667 509.333L113.333 509.667L112.667 509.333z"/>
<path style="fill:#afb5bd; stroke:none;" d="M90 510L91 511L90 510z"/>
<path style="fill:#2e90cf; stroke:none;" d="M114 510L117 513L114 510z"/>
<path style="fill:#afb5bd; stroke:none;" d="M115 510L116 511L115 510M91 511L92 512L91 511M116 511L117 512L116 511M92 512L93 513L92 512M117 512L118 513L117 512M93 513L94 514L93 513z"/>
<path style="fill:#2e90cf; stroke:none;" d="M118 513L120 515L118 513z"/>
<path style="fill:#afb5bd; stroke:none;" d="M119 513L120 514L119 513z"/>
<path style="fill:#2e90cf; stroke:none;" d="M95 514L96 515L95 514z"/>
<path style="fill:#afb5bd; stroke:none;" d="M120 514L121 515L120 514M96 515L99 518L96 515z"/>
<path style="fill:#2e90cf; stroke:none;" d="M97 515L98 516L97 515M121 515L123 517L121 515z"/>
<path style="fill:#afb5bd; stroke:none;" d="M122 515L123 516L122 515z"/>
<path style="fill:#2e90cf; stroke:none;" d="M98 516L99 517L98 516z"/>
<path style="fill:#afb5bd; stroke:none;" d="M123 516L124 517L123 516z"/>
<path style="fill:#2e90cf; stroke:none;" d="M99 517L100 518L99 517M124 517L124 518L128 520L128 519L124 517z"/>
<path style="fill:#afb5bd; stroke:none;" d="M125 517L126 518L125 517M347 518L347 519L355 518L347 518z"/>
<path style="fill:#2e90cf; stroke:none;" d="M100 518L100 519L106 522L106 521L100 518z"/>
<path style="fill:#afb5bd; stroke:none;" d="M127 518L128 519L127 518M101 519L102 520L101 519M128 519L129 520L128 519M343 519L343 520L347 521L347 520L343 519z"/>
<path style="fill:#2e90cf; stroke:none;" d="M346.667 519.333L347.333 519.667L346.667 519.333z"/>
<path style="fill:#afb5bd; stroke:none;" d="M102 520L103 521L102 520z"/>
<path style="fill:#2e90cf; stroke:none;" d="M129 520L130 521L129 520z"/>
<path style="fill:#afb5bd; stroke:none;" d="M130 520L131 521L130 520M338.667 520.333L339.333 520.667L338.667 520.333z"/>
<path style="fill:#2e90cf; stroke:none;" d="M330 522L330 523L345 521L330 522z"/>
<path style="fill:#afb5bd; stroke:none;" d="M104 521L105 522L104 521z"/>
<path style="fill:#2e90cf; stroke:none;" d="M131 521L131 522L139 525L139 524L131 521z"/>
<path style="fill:#afb5bd; stroke:none;" d="M132.667 521.333L133.333 521.667L132.667 521.333M333.667 521.333L334.333 521.667L333.667 521.333M341.667 521.333L342.333 521.667L341.667 521.333M106 522L108 524L106 522z"/>
<path style="fill:#2e90cf; stroke:none;" d="M107 522L108 523L107 522z"/>
<path style="fill:#afb5bd; stroke:none;" d="M135 522L136 523L135 522M327 522L327 523L330 523L327 522M337.667 522.333L338.333 522.667L337.667 522.333z"/>
<path style="fill:#2e90cf; stroke:none;" d="M108 523L109 524L108 523z"/>
<path style="fill:#afb5bd; stroke:none;" d="M137 523L138 524L137 523M322 523L322 524L325 524L322 523z"/>
<path style="fill:#2e90cf; stroke:none;" d="M325 523L325 524L329 525L325 523z"/>
<path style="fill:#155ea0; stroke:none;" d="M329.667 523.333L330.333 523.667L329.667 523.333z"/>
<path style="fill:#afb5bd; stroke:none;" d="M333.667 523.333L334.333 523.667L333.667 523.333M109 524L110 525L109 524z"/>
<path style="fill:#2e90cf; stroke:none;" d="M110 524L111 525L110 524z"/>
<path style="fill:#afb5bd; stroke:none;" d="M139.667 524.333L140.333 524.667L139.667 524.333M317 524L317 525L320 525L317 524z"/>
<path style="fill:#2e90cf; stroke:none;" d="M320 524L320 525L325 526L320 524z"/>
<path style="fill:#155ea0; stroke:none;" d="M324 524L324 525L327 525L324 524z"/>
<path style="fill:#afb5bd; stroke:none;" d="M329.667 524.333L330.333 524.667L329.667 524.333M111 525L112 526L111 525z"/>
<path style="fill:#2e90cf; stroke:none;" d="M112 525L113 526L112 525M140.667 525.333L141.333 525.667L140.667 525.333z"/>
<path style="fill:#afb5bd; stroke:none;" d="M142.667 525.333L143.333 525.667L142.667 525.333M311 525L311 526L315 526L311 525z"/>
<path style="fill:#2e90cf; stroke:none;" d="M315 525L315 526L321 527L315 525z"/>
<path style="fill:#155ea0; stroke:none;" d="M319 525L319 526L323 526L319 525z"/>
<path style="fill:#afb5bd; stroke:none;" d="M325.667 525.333L326.333 525.667L325.667 525.333M113 526L114 527L113 526z"/>
<path style="fill:#2e90cf; stroke:none;" d="M114 526L115 527L114 526M143.667 526.333L144.333 526.667L143.667 526.333z"/>
<path style="fill:#afb5bd; stroke:none;" d="M145.667 526.333L146.333 526.667L145.667 526.333M305 526L305 527L309 527L305 526z"/>
<path style="fill:#2e90cf; stroke:none;" d="M309 526L309 527L314 527L309 526z"/>
<path style="fill:#afb5bd; stroke:none;" d="M321.667 526.333L322.333 526.667L321.667 526.333M115 527L116 528L115 527z"/>
<path style="fill:#2e90cf; stroke:none;" d="M116 527L116 528L122 530L122 529L116 527M146.667 527.333L147.333 527.667L146.667 527.333z"/>
<path style="fill:#afb5bd; stroke:none;" d="M148 527L148 528L151 528L148 527M298 527L298 528L302 528L298 527z"/>
<path style="fill:#2e90cf; stroke:none;" d="M302 527L302 528L307 528L302 527M314.667 527.333L315.333 527.667L314.667 527.333z"/>
<path style="fill:#afb5bd; stroke:none;" d="M316 527L316 528L319 528L316 527M117 528L118 529L117 528z"/>
<path style="fill:#2e90cf; stroke:none;" d="M149 528L149 529L152 529L149 528z"/>
<path style="fill:#afb5bd; stroke:none;" d="M152.667 528.333L153.333 528.667L152.667 528.333M291 528L291 529L296 529L291 528z"/>
<path style="fill:#2e90cf; stroke:none;" d="M296 528L296 529L301 529L296 528M309 528L309 529L312 529L309 528z"/>
<path style="fill:#afb5bd; stroke:none;" d="M312 528L312 529L315 529L312 528M119 529L120 530L119 529z"/>
<path style="fill:#2e90cf; stroke:none;" d="M153.667 529.333L154.333 529.667L153.667 529.333z"/>
<path style="fill:#afb5bd; stroke:none;" d="M155 529L155 530L158 530L155 529M285 529L285 530L290 530L285 529z"/>
<path style="fill:#2e90cf; stroke:none;" d="M290 529L290 530L294 530L290 529M304 529L304 530L308 530L304 529z"/>
<path style="fill:#afb5bd; stroke:none;" d="M308.667 529.333L309.333 529.667L308.667 529.333M121.667 530.333L122.333 530.667L121.667 530.333z"/>
<path style="fill:#2e90cf; stroke:none;" d="M123.667 530.333L124.333 530.667L123.667 530.333M157 530L157 531L160 531L157 530z"/>
<path style="fill:#afb5bd; stroke:none;" d="M160 530L160 531L163 531L160 530M278 530L278 531L283 531L278 530z"/>
<path style="fill:#2e90cf; stroke:none;" d="M283 530L283 531L287 531L283 530M275 534L275 535L303 531L275 534z"/>
<path style="fill:#afb5bd; stroke:none;" d="M303 530L303 531L306 531L303 530M124.667 531.333L125.333 531.667L124.667 531.333z"/>
<path style="fill:#2e90cf; stroke:none;" d="M126 531L126 532L143 536L143 535L126 531M162 531L162 532L165 532L162 531z"/>
<path style="fill:#afb5bd; stroke:none;" d="M165 531L165 532L168 532L165 531M270 531L270 532L275 532L270 531z"/>
<path style="fill:#2e90cf; stroke:none;" d="M275 531L275 532L280 532L275 531z"/>
<path style="fill:#afb5bd; stroke:none;" d="M298 531L298 532L301 532L298 531M127 532L128 533L127 532z"/>
<path style="fill:#2e90cf; stroke:none;" d="M167 532L167 533L171 533L167 532z"/>
<path style="fill:#afb5bd; stroke:none;" d="M171 532L171 533L175 533L171 532M261 532L261 533L266 533L261 532z"/>
<path style="fill:#2e90cf; stroke:none;" d="M266 532L266 533L271 533L266 532z"/>
<path style="fill:#afb5bd; stroke:none;" d="M293.667 532.333L294.333 532.667L293.667 532.333M130.667 533.333L131.333 533.667L130.667 533.333z"/>
<path style="fill:#2e90cf; stroke:none;" d="M174 533L174 534L178 534L174 533z"/>
<path style="fill:#afb5bd; stroke:none;" d="M178 533L178 534L183 534L178 533M250 533L250 534L257 534L250 533z"/>
<path style="fill:#2e90cf; stroke:none;" d="M257 533L257 534L262 534L257 533z"/>
<path style="fill:#afb5bd; stroke:none;" d="M287 533L287 534L290 534L287 533M134.667 534.333L135.333 534.667L134.667 534.333z"/>
<path style="fill:#2e90cf; stroke:none;" d="M181 534L181 535L188 535L181 534z"/>
<path style="fill:#afb5bd; stroke:none;" d="M188 534L188 535L195 535L188 534M234 534L234 535L243 535L234 534z"/>
<path style="fill:#2e90cf; stroke:none;" d="M243 534L243 535L253 535L243 534z"/>
<path style="fill:#afb5bd; stroke:none;" d="M281 534L281 535L284 535L281 534M138.667 535.333L139.333 535.667L138.667 535.333z"/>
<path style="fill:#2e90cf; stroke:none;" d="M189 535L189 536L242 536L225 535L189 535M270 535L270 536L274 536L270 535z"/>
<path style="fill:#afb5bd; stroke:none;" d="M274 535L274 536L278 536L274 535M142.667 536.333L143.333 536.667L142.667 536.333z"/>
<path style="fill:#2e90cf; stroke:none;" d="M144 536L144 537L147 537L144 536M264 536L264 537L268 537L264 536z"/>
<path style="fill:#afb5bd; stroke:none;" d="M268 536L268 537L271 537L268 536M146 537L146 538L149 538L146 537z"/>
<path style="fill:#2e90cf; stroke:none;" d="M149.667 537.333L150.333 537.667L149.667 537.333M255 537L255 538L260 538L255 537z"/>
<path style="fill:#afb5bd; stroke:none;" d="M260 537L260 538L264 538L260 537M151 538L151 539L154 539L151 538z"/>
<path style="fill:#2e90cf; stroke:none;" d="M154 538L154 539L158 539L154 538M245 538L245 539L251 539L245 538z"/>
<path style="fill:#afb5bd; stroke:none;" d="M251 538L251 539L257 539L251 538M156 539L156 540L161 540L156 539z"/>
<path style="fill:#2e90cf; stroke:none;" d="M161 539L161 540L167 540L161 539M235 539L235 540L241 540L235 539z"/>
<path style="fill:#afb5bd; stroke:none;" d="M241 539L241 540L248 540L241 539M164 540L164 541L171 541L164 540z"/>
<path style="fill:#2e90cf; stroke:none;" d="M171 540L171 541L179 541L171 540M221 540L221 541L231 541L221 540z"/>
<path style="fill:#afb5bd; stroke:none;" d="M231 540L231 541L238 541L231 540M174 541L174 542L189 543L174 541z"/>
<path style="fill:#2e90cf; stroke:none;" d="M181 541L181 542L218 542C208.202 537.889 191.649 541 181 541z"/>
<path style="fill:#afb5bd; stroke:none;" d="M211 542L211 543L228 542L211 542z"/>
</svg>
