<?xml version="1.0" standalone="yes"?>
<svg xmlns="http://www.w3.org/2000/svg" width="512" height="512">
<path style="fill:#010101; stroke:none;" d="M0 0L0 512L512 512L512 0L0 0z"/>
<path style="fill:#1ecde0; stroke:none;" d="M213 241C208.037 261.894 187.591 259.828 171 257.08L97 244.753C86.0128 242.922 73.2911 240.146 64.0154 248.214C55.5198 255.603 56 264.688 56 275C56 290.3 59.7561 311.183 55.6821 325.896C54.1852 331.302 46.0436 334.104 42.9946 339.001C37.8233 347.305 38.643 364.575 40.3295 374C42.6401 386.912 55.9991 388.293 56 402C56.001 417.82 50.1671 447.679 62.1883 459.815C72.849 470.578 95.7899 470.031 110 472.414C151.053 479.298 194.441 491.216 236 493L236 492C232.664 487.597 236.42 479.455 232.397 475.988C226.803 471.169 210.258 471.457 203 470.247C177.978 466.077 153.018 461.609 128 457.414C117.318 455.622 106.638 453.842 96 451.803C91.8246 451.003 86.4703 450.952 83.3179 447.697C78.7278 442.957 81 431.116 81 425C81 413.519 78.6656 399.168 81.314 388C83.5522 378.562 88 373.484 88 363C88 354.545 89.3569 345.298 84.1998 338.004C81.227 333.799 74.5703 331.358 72.6034 326.79C70.745 322.474 72 315.627 72 311C72 298.622 67.449 274.802 74.0895 264.056C79.8801 254.684 105.929 263.735 115 265.247C154.449 271.822 196.071 283.286 236 285L236 284C232.73 279.683 233.8 273.039 235 268L223 266C224.143 259.586 227.059 247.677 235 249C233.758 243.784 232.615 236.468 236 232L236 231C199.609 223.392 173.029 187.46 172.129 151C171.833 139 177.279 128.489 179 117L216 113.989L232.397 111.821L236 96L236 95C219.494 95.7088 202.379 97.4188 186 99.5756C180.242 100.334 172.895 99.5606 168.105 103.434C158.972 110.817 156.228 131.957 156 143L155 143C151.98 120.576 146.952 90.9451 154.699 69C165.19 39.2825 207.431 27.9329 236 33L236 32L234 16C207.423 16 178.544 17.798 157 35.4645C133.389 54.8258 136 81.5417 136 109C136 120.467 134.621 132.853 137.746 144C141.757 158.308 152.127 165.688 158.722 178C172.063 202.904 182.78 231.437 213 241z"/>
<path style="fill:#34b5e5; stroke:none;" d="M234 16C234 19.6425 232.275 29.3256 235.603 31.6906C241.645 35.9839 259.445 34.2481 267 35.1551C285.316 37.3539 303.055 42.0709 321 46.1119C329.039 47.9221 337.553 47.0708 344.999 51.1852C355.037 56.7319 357.901 66.3954 359.421 77C362.543 98.7997 360.881 123.71 356 145L355 145C354.991 131.674 350.34 102.049 336.96 95.1829C331.168 92.2105 320.981 96.7193 315 98C295.777 102.116 274.707 103.419 256 109C256 105.229 256.682 100.433 254.258 97.2292C251.084 93.0348 238.501 92.6362 235.028 96.7917C232.435 99.8931 234 108.152 234 112L239 111C240.06 115.411 239.306 121.718 243.112 124.856C247.919 128.819 256.489 125.824 262 124.92C277.686 122.346 293.329 119.584 309 116.919C313.717 116.117 325.376 111.365 329.362 114.643C340.95 124.171 339.589 153.183 336.996 166C330.775 196.755 306.746 223.381 276 231.105C261.622 234.717 248.5 233.33 234 232L235 249C251.157 248.369 265.933 253.028 282 247L290 266L258 270.907L235 268C233.833 271.947 232.042 281.752 236.318 284.348C239.333 286.179 245.195 285.224 247.142 288.508C250.086 293.475 248 304.344 248 310L248 478L234 476C234 479.985 232.468 487.981 235.028 491.272C241.906 500.116 265.071 495.241 274 493.753L351 480.92C363.219 478.896 376.632 474.798 389 475L390 458L327 467.576L264 478L264 287C298.039 285.538 333.403 275.754 367 270.081C376.672 268.448 390 270.124 390 258C390 255.914 390.515 252.526 388.972 250.832C385.271 246.767 366.957 252.889 362 253.75C344.006 256.876 318.412 266.353 303.638 251.491C300.912 248.749 299.792 244.361 298 241C326.758 230.535 338.838 205.109 351.557 180C356.041 171.148 364.999 165.125 369.627 156C378.516 138.469 376 117.993 376 99C376 79.8534 378.246 58.3365 363.855 43.1844C353.091 31.8514 339.093 32.3828 325 29.3318C294.298 22.6849 265.331 17.9182 234 16z"/>
<path style="fill:#1ecde0; stroke:none;" d="M237 16L238 17L237 16M240 16L241 17L240 16M246 16L247 17L246 16M251 16L252 17L251 16z"/>
<path style="fill:#44a5e8; stroke:none;" d="M271 18L272 19L271 18M284 20L285 21L284 20z"/>
<path style="fill:#1ecde0; stroke:none;" d="M295 22L296 23L295 22M309 25L310 26L309 25M313 26L314 27L313 26z"/>
<path style="fill:#13aded; stroke:none;" d="M321 28L322 29L321 28z"/>
<path style="fill:#1ecde0; stroke:none;" d="M340 31L341 32L340 31z"/>
<path style="fill:#010101; stroke:none;" d="M155 143L156 143C156.493 131.509 159.619 107.932 171.004 102.024C181.372 96.6437 198.534 98.9306 210 97.4244C225.886 95.3376 255.998 86.4015 256 109C274.382 104.573 293.518 103.131 312 98.8812C318.483 97.3906 329.556 92.4655 335.96 95.0239C340.865 96.9835 343.074 102.598 345.244 107C351.048 118.775 354.964 131.805 355 145C359.496 138.966 359.641 129.309 359.961 122C360.8 102.827 365.812 66.9104 348.985 53.3904C338.821 45.2233 318.592 44.9319 306 42.2099C273.739 35.2357 239.939 29.476 207 34C191.728 36.0975 173.924 40.8593 163.465 53.0394C145.044 74.4894 149.663 117.129 155 143z"/>
<path style="fill:#1ecde0; stroke:none;" d="M237 32L237 33L240 33L237 32z"/>
<path style="fill:#34b5e5; stroke:none;" d="M210 33L211 34L210 33z"/>
<path style="fill:#1ecde0; stroke:none;" d="M252 33L253 34L252 33z"/>
<path style="fill:#13aded; stroke:none;" d="M158 34L159 35L158 34z"/>
<path style="fill:#44a5e8; stroke:none;" d="M350 34L351 35L350 34z"/>
<path style="fill:#13aded; stroke:none;" d="M269 35L270 36L269 35z"/>
<path style="fill:#44a5e8; stroke:none;" d="M276 36L277 37L276 36z"/>
<path style="fill:#34b5e5; stroke:none;" d="M184 39L185 40L184 39z"/>
<path style="fill:#44a5e8; stroke:none;" d="M360 40L361 41L360 40M302 41L303 42L302 41M322 46L323 47L322 46z"/>
<path style="fill:#1ecde0; stroke:none;" d="M366 46L367 47L366 46z"/>
<path style="fill:#13aded; stroke:none;" d="M168 48L169 49L168 48M338 48L339 49L338 48z"/>
<path style="fill:#44a5e8; stroke:none;" d="M368 49L369 50L368 49M344 50L345 51L344 50M370 53L371 54L370 53z"/>
<path style="fill:#13aded; stroke:none;" d="M350 54L351 55L350 54z"/>
<path style="fill:#1ecde0; stroke:none;" d="M351 55L352 56L351 55z"/>
<path style="fill:#13aded; stroke:none;" d="M140 57L141 58L140 57z"/>
<path style="fill:#1ecde0; stroke:none;" d="M354 59L355 60L354 59z"/>
<path style="fill:#13aded; stroke:none;" d="M373 60L374 61L373 60z"/>
<path style="fill:#44a5e8; stroke:none;" d="M356 63L357 64L356 63z"/>
<path style="fill:#13aded; stroke:none;" d="M357 66L358 67L357 66z"/>
<path style="fill:#44a5e8; stroke:none;" d="M358 70L359 71L358 70z"/>
<path style="fill:#13aded; stroke:none;" d="M359 77L360 78L359 77z"/>
<path style="fill:#1ecde0; stroke:none;" d="M247 94L248 95L247 94z"/>
<path style="fill:#44a5e8; stroke:none;" d="M330 94L331 95L330 94z"/>
<path style="fill:#1ecde0; stroke:none;" d="M237.667 95.3333L238.333 95.6667L237.667 95.3333M326 95L327 96L326 95M339 96L340 97L339 96z"/>
<path style="fill:#34b5e5; stroke:none;" d="M198 98L199 99L198 98z"/>
<path style="fill:#13aded; stroke:none;" d="M255 98L256 99L255 98z"/>
<path style="fill:#1ecde0; stroke:none;" d="M341 99L342 100L341 99z"/>
<path style="fill:#34b5e5; stroke:none;" d="M170 101L171 102L170 101z"/>
<path style="fill:#44a5e8; stroke:none;" d="M282 104L283 105L282 104z"/>
<path style="fill:#1ecde0; stroke:none;" d="M277 105L278 106L277 105M270 106L271 107L270 106M264 107L265 108L264 107M235 111L236 112L235 111M237.667 111.333L238.333 111.667L237.667 111.333z"/>
<path style="fill:#44a5e8; stroke:none;" d="M347 111L348 112L347 111z"/>
<path style="fill:#010101; stroke:none;" d="M240 112C225.808 112.039 211.092 114.046 197 115.715C192.193 116.284 184.597 115.236 180.418 118.027C175.715 121.169 174.378 131.836 173.464 137C169.748 157.983 175.351 180.53 187.347 198C226.983 255.722 319.062 238.86 336.105 171C340.444 153.725 339.678 133.242 331.557 117.059C328.003 109.976 315.143 115.579 309 116.8C293.768 119.828 278.366 122.465 263 124.728C257.842 125.488 249.901 128.308 245.019 125.817C239.506 123.004 240.001 117.285 240 112z"/>
<path style="fill:#13aded; stroke:none;" d="M325 113L326 114L325 113z"/>
<path style="fill:#34b5e5; stroke:none;" d="M209 114L210 115L209 114M179 117L180 118L179 117z"/>
<path style="fill:#44a5e8; stroke:none;" d="M305 117L306 118L305 117z"/>
<path style="fill:#1ecde0; stroke:none;" d="M240 119L241 120L240 119z"/>
<path style="fill:#44a5e8; stroke:none;" d="M332 119L333 120L332 119M350 119L351 120L350 119z"/>
<path style="fill:#1ecde0; stroke:none;" d="M240.333 121.667L240.667 122.333L240.333 121.667M276 122L277 123L276 122M264 124L265 125L264 124M243.667 125.333L244.333 125.667L243.667 125.333M251 126L252 127L251 126z"/>
<path style="fill:#44a5e8; stroke:none;" d="M352 126L353 127L352 126z"/>
<path style="fill:#1ecde0; stroke:none;" d="M359 126L360 127L359 126z"/>
<path style="fill:#13aded; stroke:none;" d="M175 128L176 129L175 128z"/>
<path style="fill:#1ecde0; stroke:none;" d="M335 128L336 129L335 128M353 130L354 131L353 130z"/>
<path style="fill:#44a5e8; stroke:none;" d="M375 137L376 138L375 137z"/>
<path style="fill:#1ecde0; stroke:none;" d="M374 142L375 143L374 142z"/>
<path style="fill:#44a5e8; stroke:none;" d="M373 145L374 146L373 145z"/>
<path style="fill:#34b5e5; stroke:none;" d="M172 146L173 147L172 146z"/>
<path style="fill:#1ecde0; stroke:none;" d="M338 146L339 147L338 146M371 151L372 152L371 151z"/>
<path style="fill:#13aded; stroke:none;" d="M172 154L173 155L172 154M365 162L366 163L365 162z"/>
<path style="fill:#34b5e5; stroke:none;" d="M173 163L174 164L173 163z"/>
<path style="fill:#13aded; stroke:none;" d="M174 168L175 169L174 168z"/>
<path style="fill:#1ecde0; stroke:none;" d="M334 176L335 177L334 176M348 187L349 188L348 187z"/>
<path style="fill:#34b5e5; stroke:none;" d="M184 193L185 194L184 193M188 199L189 200L188 199M191 203L192 204L191 203z"/>
<path style="fill:#1ecde0; stroke:none;" d="M319 203L320 204L319 203z"/>
<path style="fill:#13aded; stroke:none;" d="M192 204L193 205L192 204M338 206L339 207L338 206z"/>
<path style="fill:#34b5e5; stroke:none;" d="M202 214L203 215L202 214z"/>
<path style="fill:#44a5e8; stroke:none;" d="M332 214L333 215L332 214z"/>
<path style="fill:#13aded; stroke:none;" d="M291 225L292 226L291 225z"/>
<path style="fill:#34b5e5; stroke:none;" d="M221 226L222 227L221 226z"/>
<path style="fill:#13aded; stroke:none;" d="M284 228L285 229L284 228M229 229L230 230L229 229z"/>
<path style="fill:#44a5e8; stroke:none;" d="M278 230L279 231L278 230z"/>
<path style="fill:#13aded; stroke:none;" d="M236 231L237 232L236 231z"/>
<path style="fill:#1ecde0; stroke:none;" d="M314 231L315 232L314 231M237 232L237 233L240 233L237 232M247.667 233.333L248.333 233.667L247.667 233.333z"/>
<path style="fill:#44a5e8; stroke:none;" d="M303 238L304 239L303 238M301 239L302 240L301 239M388 249L388 250L390 266C400.991 265.528 412.149 262.713 423 260.92C427.496 260.177 432.955 258.582 436.581 262.293C440.572 266.378 440 272.771 440 278L440 312C440 316.363 441.151 322.716 439.397 326.79C435.898 334.915 425.528 336.356 424.185 347C422.944 356.84 421.911 372.39 427.272 380.999C430.273 385.819 438.223 388.833 439.682 394.104C442.812 405.409 440.005 421.257 440 433C439.998 437.829 440.352 443.021 436.721 446.772C433.192 450.418 427.696 450.577 423 451.424C411.26 453.542 398.945 456.753 387 457L387 458L390 458L390 474C408.49 472.539 447.998 471.536 454.895 451C460.852 433.261 451.376 411.95 456.318 394.104C457.785 388.805 465.818 385.792 468.867 380.999C474.158 372.681 473.372 355.508 471.671 346C469.916 336.193 457.503 333.178 456.148 324.957C453.55 309.191 456 290.993 456 275C456 264.227 456.268 254.782 446.985 247.394C431.561 235.117 405.35 248.253 388 249z"/>
<path style="fill:#1ecde0; stroke:none;" d="M300 246L301 247L300 246M281 247L282 248L281 247z"/>
<path style="fill:#010101; stroke:none;" d="M229 248L223 266L256 270.971L289 266L283 248L256 250.981L229 248z"/>
<path style="fill:#1ecde0; stroke:none;" d="M236 248L237 249L236 248z"/>
<path style="fill:#34b5e5; stroke:none;" d="M393 248L394 249L393 248z"/>
<path style="fill:#1ecde0; stroke:none;" d="M240 249L241 250L240 249z"/>
<path style="fill:#34b5e5; stroke:none;" d="M228 250L229 251L228 250M227 252L228 253L227 252z"/>
<path style="fill:#44a5e8; stroke:none;" d="M363 253L364 254L363 253z"/>
<path style="fill:#1ecde0; stroke:none;" d="M452 253L453 254L452 253z"/>
<path style="fill:#44a5e8; stroke:none;" d="M357 254L358 255L357 254z"/>
<path style="fill:#13aded; stroke:none;" d="M201 255L202 256L201 255z"/>
<path style="fill:#1ecde0; stroke:none;" d="M310 255L311 256L310 255z"/>
<path style="fill:#44a5e8; stroke:none;" d="M351 255L352 256L351 255z"/>
<path style="fill:#34b5e5; stroke:none;" d="M198 257L199 258L198 257z"/>
<path style="fill:#010101; stroke:none;" d="M248 478L248 287C205.714 283.658 162.866 273.015 121 266.08L89 260.753C85.05 260.095 79.8419 258.385 76.2245 260.873C71.5052 264.119 72.0019 270.998 72 276L72 312C72 316.495 70.6932 323.468 72.6034 327.621C76.3179 335.697 86.4775 337.399 87.8148 348C88.8056 355.853 89.4139 367.375 87.2106 375C85.9494 379.365 82.3493 382.634 81.314 387C78.8058 397.577 81 411.129 81 422C81 428.623 78.6242 441.026 82.0278 446.856C84.2065 450.587 89.2182 450.741 93 451.424C103.33 453.291 113.643 455.204 124 456.92C165.268 463.755 206.509 472.729 248 478z"/>
<path style="fill:#1ecde0; stroke:none;" d="M316 259L317 260L316 259z"/>
<path style="fill:#010101; stroke:none;" d="M264 287L264 478C307.802 472.435 351.441 463.507 395 456.247L426 451.08C430.771 450.284 436.165 449.809 438.566 444.956C443.465 435.055 440 416.887 440 406C440 402.021 441.093 396.067 439.397 392.379C437.171 387.539 430.168 384.787 427.133 380C422.073 372.017 423.777 360.076 424.015 351C424.347 338.293 435.07 337.027 439.397 327.621C441.307 323.468 440 316.495 440 312L440 275C439.992 269.998 440.176 262.978 434.892 260.357C430.915 258.385 425.124 260.397 421 261.08L388 266.586C347.157 273.436 305.267 283.739 264 287z"/>
<path style="fill:#34b5e5; stroke:none;" d="M224 260L225 261L224 260z"/>
<path style="fill:#44a5e8; stroke:none;" d="M287 260L288 261L287 260z"/>
<path style="fill:#34b5e5; stroke:none;" d="M223 262L224 263L223 262z"/>
<path style="fill:#13aded; stroke:none;" d="M289 265L290 266L289 265z"/>
<path style="fill:#34b5e5; stroke:none;" d="M226 266L227 267L226 266z"/>
<path style="fill:#44a5e8; stroke:none;" d="M388 266L389 267L388 266z"/>
<path style="fill:#34b5e5; stroke:none;" d="M232 267L233 268L232 267z"/>
<path style="fill:#1ecde0; stroke:none;" d="M279 267L280 268L279 267z"/>
<path style="fill:#44a5e8; stroke:none;" d="M382 267L383 268L382 267z"/>
<path style="fill:#1ecde0; stroke:none;" d="M236 268L237 269L236 268M273 268L274 269L273 268z"/>
<path style="fill:#44a5e8; stroke:none;" d="M376 268L377 269L376 268z"/>
<path style="fill:#1ecde0; stroke:none;" d="M240 269L241 270L240 269M242 269L243 270L242 269M267 269L268 270L267 269z"/>
<path style="fill:#44a5e8; stroke:none;" d="M370 269L371 270L370 269z"/>
<path style="fill:#1ecde0; stroke:none;" d="M261 270L262 271L261 270z"/>
<path style="fill:#44a5e8; stroke:none;" d="M364 270L365 271L364 270M352 272L353 273L352 272M346 273L347 274L346 273z"/>
<path style="fill:#1ecde0; stroke:none;" d="M237 285L237 286L240 286L237 285M243 286L244 287L243 286M245 286L246 287L245 286z"/>
<path style="fill:#44a5e8; stroke:none;" d="M389 291L390 308L400 306L400 321L389 323L390 340C396.3 339.499 409.998 338.757 414.258 333.581C419.582 327.111 416.052 307.14 415.999 299C415.976 295.469 416.037 291.305 412.656 289.179C406.349 285.212 395.654 290.104 389 291z"/>
<path style="fill:#34b5e5; stroke:none;" d="M392 290L393 291L392 290z"/>
<path style="fill:#13aded; stroke:none;" d="M414 290L415 291L414 290z"/>
<path style="fill:#34b5e5; stroke:none;" d="M390 340L389 323L296 342L296 327C318.372 324.111 340.929 318.483 363 313.789C369.586 312.389 383.215 312.141 388.397 307.836C391.915 304.912 390.117 294.778 389 291C364.437 297.29 338.879 301.025 314 306C305.196 307.761 290.662 307.908 283.228 313.09C276.158 318.019 279.95 341.126 280.001 349C280.024 352.531 279.963 356.695 283.344 358.821C290.423 363.273 305.483 357.303 313 355.8C338.542 350.692 364.274 343.782 390 340z"/>
<path style="fill:#44a5e8; stroke:none;" d="M385 292L386 293L385 292z"/>
<path style="fill:#1ecde0; stroke:none;" d="M100.059 297.028C92.7572 301.026 96.5055 310.302 103.001 312.467C132.563 322.32 166.421 325.283 197 331.4C204.556 332.911 221.993 339.753 228.721 334.397C241.747 324.029 219.497 318.348 213 317.003C185.706 311.352 158.331 306.068 131 300.6C123.029 299.006 107.682 292.853 100.059 297.028z"/>
<path style="fill:#010101; stroke:none;" d="M399 306C366.695 316.939 329.516 320.5 296 327L296 342L400 321L399 306z"/>
<path style="fill:#34b5e5; stroke:none;" d="M392 307L393 308L392 307z"/>
<path style="fill:#44a5e8; stroke:none;" d="M388 308L389 309L388 308M383 309L384 310L383 309M378 310L379 311L378 310M373 311L374 312L373 311M368 312L369 313L368 312z"/>
<path style="fill:#34b5e5; stroke:none;" d="M219 318L220 319L219 318M224 319L225 320L224 319M393 322L394 323L393 322z"/>
<path style="fill:#44a5e8; stroke:none;" d="M383.667 324.333L384.333 324.667L383.667 324.333z"/>
<path style="fill:#34b5e5; stroke:none;" d="M231.333 330.667L231.667 331.333L231.333 330.667z"/>
<path style="fill:#1ecde0; stroke:none;" d="M468 338L469 339L468 338z"/>
<path style="fill:#44a5e8; stroke:none;" d="M386 340L386 341L389 341L386 340M383 341L384 342L383 341M378 342L379 343L378 342M368 344L369 345L368 344z"/>
<path style="fill:#010101; stroke:none;" d="M61.108 345.863C52.2502 349.709 53.7909 378.505 65.9815 374.377C76.3885 370.854 74.2154 340.17 61.108 345.863z"/>
<path style="fill:#44a5e8; stroke:none;" d="M363 345L364 346L363 345z"/>
<path style="fill:#010101; stroke:none;" d="M445.108 345.863C436.25 349.709 437.791 378.505 449.981 374.377C460.389 370.854 458.215 340.17 445.108 345.863z"/>
<path style="fill:#44a5e8; stroke:none;" d="M358 346L359 347L358 346z"/>
<path style="fill:#1ecde0; stroke:none;" d="M443 346L444 347L443 346M452 346L453 347L452 346M100.059 353.028C92.7572 357.026 96.5055 366.302 103.001 368.467C132.563 378.32 166.421 381.283 197 387.4C204.556 388.911 221.993 395.753 228.721 390.397C241.747 380.029 219.497 374.348 213 373.003C185.706 367.352 158.331 362.068 131 356.6C123.029 355.006 107.682 348.853 100.059 353.028z"/>
<path style="fill:#44a5e8; stroke:none;" d="M281 357L282 358L281 357M389 363L390 380C396.384 379.492 407.767 378.779 412.772 374.486C417.19 370.696 416.697 362.859 410.956 360.603C404.515 358.073 395.502 361.924 389 363z"/>
<path style="fill:#34b5e5; stroke:none;" d="M393 362L394 363L393 362M390 380L389 363C361.489 370.045 332.864 374.228 305 379.8C297.544 381.291 280.218 381.419 280.218 392C280.218 404.881 298.899 398.62 306 397.2C334.023 391.596 361.952 385.439 390 380z"/>
<path style="fill:#44a5e8; stroke:none;" d="M385 364L386 365L385 364z"/>
<path style="fill:#34b5e5; stroke:none;" d="M415 364L416 365L415 364M415 371L416 372L415 371z"/>
<path style="fill:#1ecde0; stroke:none;" d="M442 372L443 373L442 372z"/>
<path style="fill:#34b5e5; stroke:none;" d="M452 373L453 374L452 373M219 374L220 375L219 374M224 375L225 376L224 375M426 379L427 380L426 379z"/>
<path style="fill:#44a5e8; stroke:none;" d="M387.667 380.333L388.333 380.667L387.667 380.333M382.667 381.333L383.333 381.667L382.667 381.333z"/>
<path style="fill:#1ecde0; stroke:none;" d="M468 381L469 382L468 381z"/>
<path style="fill:#44a5e8; stroke:none;" d="M378 382L379 383L378 382M373 383L374 384L373 383M368 384L369 385L368 384M363 385L364 386L363 385z"/>
<path style="fill:#34b5e5; stroke:none;" d="M231.333 386.667L231.667 387.333L231.333 386.667z"/>
<path style="fill:#44a5e8; stroke:none;" d="M358 386L359 387L358 386z"/>
<path style="fill:#1ecde0; stroke:none;" d="M280 388L281 389L280 388z"/>
<path style="fill:#44a5e8; stroke:none;" d="M390 412C393.726 411.703 397.337 410.932 401 410.2C403.946 409.611 407.199 409.29 409.985 408.121C415.667 405.736 418.226 397.814 412.772 393.603C408.8 390.537 394.247 391.683 391.028 395.738C388.337 399.128 390 407.855 390 412z"/>
<path style="fill:#1ecde0; stroke:none;" d="M280 395L281 396L280 395z"/>
<path style="fill:#44a5e8; stroke:none;" d="M387.667 395.333L388.333 395.667L387.667 395.333z"/>
<path style="fill:#34b5e5; stroke:none;" d="M389 395C375.125 399.697 359.381 400.924 345 403.8L316 409.6C306.832 411.434 291.907 411.59 284.109 416.857C278.368 420.735 279.029 429.633 286.005 431.566C293.219 433.566 302.883 429.823 310 428.4L364 417.6C370.227 416.355 383.659 416.224 388.486 411.937C391.68 409.1 390.471 398.505 389 395z"/>
<path style="fill:#44a5e8; stroke:none;" d="M382.667 396.333L383.333 396.667L382.667 396.333z"/>
<path style="fill:#34b5e5; stroke:none;" d="M415 396L416 397L415 396z"/>
<path style="fill:#44a5e8; stroke:none;" d="M377 397L378 398L377 397M372 398L373 399L372 398M367 399L368 400L367 399z"/>
<path style="fill:#1ecde0; stroke:none;" d="M100.059 401.028C92.7572 405.026 96.5055 414.302 103.001 416.467C132.563 426.32 166.421 429.283 197 435.4C204.553 436.911 221.932 443.736 228.656 438.397C241.38 428.292 220.578 422.515 214 421.2L131 404.6C123.029 403.006 107.682 396.853 100.059 401.028z"/>
<path style="fill:#44a5e8; stroke:none;" d="M362 400L363 401L362 400z"/>
<path style="fill:#34b5e5; stroke:none;" d="M415 403L416 404L415 403z"/>
<path style="fill:#44a5e8; stroke:none;" d="M385 412L386 413L385 412z"/>
<path style="fill:#1ecde0; stroke:none;" d="M280 420L281 421L280 420z"/>
<path style="fill:#34b5e5; stroke:none;" d="M230 427L231 428L230 427z"/>
<path style="fill:#1ecde0; stroke:none;" d="M284 431L285 432L284 431z"/>
<path style="fill:#34b5e5; stroke:none;" d="M231 435L232 436L231 435M230 436L231 437L230 436M439 442L440 443L439 442M455 449L456 450L455 449M417 452L418 453L417 452M405 454L406 455L405 454z"/>
<path style="fill:#1ecde0; stroke:none;" d="M453 454L454 455L453 454z"/>
<path style="fill:#34b5e5; stroke:none;" d="M399 455L400 456L399 455M393 456L394 457L393 456z"/>
<path style="fill:#44a5e8; stroke:none;" d="M381 458L381 459L384 459L381 458M363 461L364 462L363 461z"/>
<path style="fill:#13aded; stroke:none;" d="M168 464L169 465L168 464z"/>
<path style="fill:#1ecde0; stroke:none;" d="M327 467L328 468L327 467z"/>
<path style="fill:#34b5e5; stroke:none;" d="M430 467L431 468L430 467z"/>
<path style="fill:#1ecde0; stroke:none;" d="M321 468L322 469L321 468z"/>
<path style="fill:#34b5e5; stroke:none;" d="M424 468L425 469L424 468z"/>
<path style="fill:#1ecde0; stroke:none;" d="M315 469L316 470L315 469z"/>
<path style="fill:#34b5e5; stroke:none;" d="M418 469L419 470L418 469z"/>
<path style="fill:#1ecde0; stroke:none;" d="M309 470L310 471L309 470z"/>
<path style="fill:#34b5e5; stroke:none;" d="M412 470L413 471L412 470z"/>
<path style="fill:#1ecde0; stroke:none;" d="M303 471L304 472L303 471z"/>
<path style="fill:#34b5e5; stroke:none;" d="M406 471L407 472L406 471M215 472L216 473L215 472z"/>
<path style="fill:#1ecde0; stroke:none;" d="M297 472L298 473L297 472z"/>
<path style="fill:#34b5e5; stroke:none;" d="M400 472L401 473L400 472M394 473L395 474L394 473z"/>
<path style="fill:#44a5e8; stroke:none;" d="M385.667 474.333L386.333 474.667L385.667 474.333z"/>
<path style="fill:#1ecde0; stroke:none;" d="M236 476L237 477L236 476M238 476L239 477L238 476M242 477L243 478L242 477M244 477L245 478L244 477z"/>
<path style="fill:#44a5e8; stroke:none;" d="M364 478L365 479L364 478z"/>
<path style="fill:#1ecde0; stroke:none;" d="M237 493L237 494L240 494L237 493M243 494L244 495L243 494M251 495L252 496L251 495z"/>
</svg>
